%TF.GenerationSoftware,KiCad,Pcbnew,10.0.1*%
%TF.CreationDate,2026-06-22T18:35:09+05:30*%
%TF.ProjectId,STM32F103C8T6,53544d33-3246-4313-9033-433854362e6b,rev?*%
%TF.SameCoordinates,Original*%
%TF.FileFunction,Copper,L1,Top*%
%TF.FilePolarity,Positive*%
%FSLAX46Y46*%
G04 Gerber Fmt 4.6, Leading zero omitted, Abs format (unit mm)*
G04 Created by KiCad (PCBNEW 10.0.1) date 2026-06-22 18:35:09*
%MOMM*%
%LPD*%
G01*
G04 APERTURE LIST*
G04 Aperture macros list*
%AMRoundRect*
0 Rectangle with rounded corners*
0 $1 Rounding radius*
0 $2 $3 $4 $5 $6 $7 $8 $9 X,Y pos of 4 corners*
0 Add a 4 corners polygon primitive as box body*
4,1,4,$2,$3,$4,$5,$6,$7,$8,$9,$2,$3,0*
0 Add four circle primitives for the rounded corners*
1,1,$1+$1,$2,$3*
1,1,$1+$1,$4,$5*
1,1,$1+$1,$6,$7*
1,1,$1+$1,$8,$9*
0 Add four rect primitives between the rounded corners*
20,1,$1+$1,$2,$3,$4,$5,0*
20,1,$1+$1,$4,$5,$6,$7,0*
20,1,$1+$1,$6,$7,$8,$9,0*
20,1,$1+$1,$8,$9,$2,$3,0*%
G04 Aperture macros list end*
%TA.AperFunction,ComponentPad*%
%ADD10R,1.700000X1.700000*%
%TD*%
%TA.AperFunction,ComponentPad*%
%ADD11C,1.700000*%
%TD*%
%TA.AperFunction,SMDPad,CuDef*%
%ADD12RoundRect,0.250000X-0.350000X0.450000X-0.350000X-0.450000X0.350000X-0.450000X0.350000X0.450000X0*%
%TD*%
%TA.AperFunction,SMDPad,CuDef*%
%ADD13R,0.800000X1.000000*%
%TD*%
%TA.AperFunction,SMDPad,CuDef*%
%ADD14R,1.500000X0.700000*%
%TD*%
%TA.AperFunction,SMDPad,CuDef*%
%ADD15RoundRect,0.140000X0.170000X-0.140000X0.170000X0.140000X-0.170000X0.140000X-0.170000X-0.140000X0*%
%TD*%
%TA.AperFunction,SMDPad,CuDef*%
%ADD16RoundRect,0.140000X0.140000X0.170000X-0.140000X0.170000X-0.140000X-0.170000X0.140000X-0.170000X0*%
%TD*%
%TA.AperFunction,SMDPad,CuDef*%
%ADD17RoundRect,0.135000X-0.185000X0.135000X-0.185000X-0.135000X0.185000X-0.135000X0.185000X0.135000X0*%
%TD*%
%TA.AperFunction,SMDPad,CuDef*%
%ADD18RoundRect,0.075000X-0.662500X-0.075000X0.662500X-0.075000X0.662500X0.075000X-0.662500X0.075000X0*%
%TD*%
%TA.AperFunction,SMDPad,CuDef*%
%ADD19RoundRect,0.075000X-0.075000X-0.662500X0.075000X-0.662500X0.075000X0.662500X-0.075000X0.662500X0*%
%TD*%
%TA.AperFunction,SMDPad,CuDef*%
%ADD20RoundRect,0.250000X-0.250000X-0.475000X0.250000X-0.475000X0.250000X0.475000X-0.250000X0.475000X0*%
%TD*%
%TA.AperFunction,SMDPad,CuDef*%
%ADD21RoundRect,0.160000X0.197500X0.160000X-0.197500X0.160000X-0.197500X-0.160000X0.197500X-0.160000X0*%
%TD*%
%TA.AperFunction,SMDPad,CuDef*%
%ADD22RoundRect,0.375000X-0.375000X0.625000X-0.375000X-0.625000X0.375000X-0.625000X0.375000X0.625000X0*%
%TD*%
%TA.AperFunction,SMDPad,CuDef*%
%ADD23RoundRect,0.500000X-1.400000X0.500000X-1.400000X-0.500000X1.400000X-0.500000X1.400000X0.500000X0*%
%TD*%
%TA.AperFunction,SMDPad,CuDef*%
%ADD24RoundRect,0.225000X-0.225000X-0.250000X0.225000X-0.250000X0.225000X0.250000X-0.225000X0.250000X0*%
%TD*%
%TA.AperFunction,SMDPad,CuDef*%
%ADD25RoundRect,0.140000X-0.140000X-0.170000X0.140000X-0.170000X0.140000X0.170000X-0.140000X0.170000X0*%
%TD*%
%TA.AperFunction,SMDPad,CuDef*%
%ADD26RoundRect,0.218750X-0.256250X0.218750X-0.256250X-0.218750X0.256250X-0.218750X0.256250X0.218750X0*%
%TD*%
%TA.AperFunction,SMDPad,CuDef*%
%ADD27RoundRect,0.112500X0.537500X-0.112500X0.537500X0.112500X-0.537500X0.112500X-0.537500X-0.112500X0*%
%TD*%
%TA.AperFunction,ComponentPad*%
%ADD28O,1.800000X1.150000*%
%TD*%
%TA.AperFunction,ComponentPad*%
%ADD29O,2.000000X1.450000*%
%TD*%
%TA.AperFunction,SMDPad,CuDef*%
%ADD30RoundRect,0.135000X0.185000X-0.135000X0.185000X0.135000X-0.185000X0.135000X-0.185000X-0.135000X0*%
%TD*%
%TA.AperFunction,SMDPad,CuDef*%
%ADD31RoundRect,0.250000X0.475000X-0.250000X0.475000X0.250000X-0.475000X0.250000X-0.475000X-0.250000X0*%
%TD*%
%TA.AperFunction,SMDPad,CuDef*%
%ADD32RoundRect,0.140000X-0.170000X0.140000X-0.170000X-0.140000X0.170000X-0.140000X0.170000X0.140000X0*%
%TD*%
%TA.AperFunction,SMDPad,CuDef*%
%ADD33RoundRect,0.160000X-0.197500X-0.160000X0.197500X-0.160000X0.197500X0.160000X-0.197500X0.160000X0*%
%TD*%
%TA.AperFunction,ViaPad*%
%ADD34C,0.750000*%
%TD*%
%TA.AperFunction,ViaPad*%
%ADD35C,0.700000*%
%TD*%
%TA.AperFunction,Conductor*%
%ADD36C,0.500000*%
%TD*%
%TA.AperFunction,Conductor*%
%ADD37C,0.300000*%
%TD*%
G04 APERTURE END LIST*
D10*
%TO.P,J2,1,Pin_1_1*%
%TO.N,+3.3V*%
X110810000Y-54250000D03*
D11*
%TO.P,J2,2,Pin_2_2*%
%TO.N,/SW_DIO*%
X108270000Y-54250000D03*
%TO.P,J2,3,Pin_3_3*%
%TO.N,/SW_CLK*%
X105730000Y-54250000D03*
%TO.P,J2,4,Pin_4_4*%
%TO.N,GND*%
X103190000Y-54250000D03*
%TD*%
D12*
%TO.P,Y1,1,1_1*%
%TO.N,/OSC_IN*%
X85900000Y-67850000D03*
%TO.P,Y1,2,G_2*%
%TO.N,GND*%
X85900000Y-70050000D03*
%TO.P,Y1,3,3_3*%
%TO.N,/OSC_OUT*%
X87600000Y-70050000D03*
%TO.P,Y1,4,G_4*%
%TO.N,GND*%
X87600000Y-67850000D03*
%TD*%
D13*
%TO.P,SW1,*%
%TO.N,*%
X82280000Y-58850000D03*
X80070000Y-58850000D03*
X82280000Y-66150000D03*
X80070000Y-66150000D03*
D14*
%TO.P,SW1,1,A_1*%
%TO.N,GND*%
X82930000Y-60250000D03*
%TO.P,SW1,2,B_2*%
%TO.N,/SW_BOOT0*%
X82930000Y-63250000D03*
%TO.P,SW1,3,C_3*%
%TO.N,+3.3V*%
X82930000Y-64750000D03*
%TD*%
D15*
%TO.P,C6,1*%
%TO.N,+3.3VA*%
X90925000Y-70460000D03*
%TO.P,C6,2*%
%TO.N,GND*%
X90925000Y-69500000D03*
%TD*%
%TO.P,C4,1*%
%TO.N,+3.3V*%
X91050000Y-66255000D03*
%TO.P,C4,2*%
%TO.N,GND*%
X91050000Y-65295000D03*
%TD*%
D16*
%TO.P,C3,1*%
%TO.N,+3.3V*%
X100210000Y-74990000D03*
%TO.P,C3,2*%
%TO.N,GND*%
X99250000Y-74990000D03*
%TD*%
D17*
%TO.P,R2,1*%
%TO.N,+3.3V*%
X108100000Y-66740000D03*
%TO.P,R2,2*%
%TO.N,/USB_D+*%
X108100000Y-67760000D03*
%TD*%
D18*
%TO.P,U1,1,VBAT_1*%
%TO.N,+3.3V*%
X92837500Y-66250000D03*
%TO.P,U1,2,PC13_2*%
%TO.N,unconnected-(U1-PC13-Pad2)*%
X92837500Y-66750000D03*
%TO.P,U1,3,PC14_3*%
%TO.N,unconnected-(U1-PC14-Pad3)*%
X92837500Y-67250000D03*
%TO.P,U1,4,PC15_4*%
%TO.N,unconnected-(U1-PC15-Pad4)*%
X92837500Y-67750000D03*
%TO.P,U1,5,PD0_5*%
%TO.N,/OSC_IN*%
X92837500Y-68250000D03*
%TO.P,U1,6,PD1_6*%
%TO.N,/OSC_OUT*%
X92837500Y-68750000D03*
%TO.P,U1,7,NRST_7*%
%TO.N,/NRST*%
X92837500Y-69250000D03*
%TO.P,U1,8,VSSA_8*%
%TO.N,GND*%
X92837500Y-69750000D03*
%TO.P,U1,9,VDDA_9*%
%TO.N,+3.3VA*%
X92837500Y-70250000D03*
%TO.P,U1,10,PA0_10*%
%TO.N,unconnected-(U1-PA0-Pad10)*%
X92837500Y-70750000D03*
%TO.P,U1,11,PA1_11*%
%TO.N,unconnected-(U1-PA1-Pad11)*%
X92837500Y-71250000D03*
%TO.P,U1,12,PA2_12*%
%TO.N,unconnected-(U1-PA2-Pad12)*%
X92837500Y-71750000D03*
D19*
%TO.P,U1,13,PA3_13*%
%TO.N,unconnected-(U1-PA3-Pad13)*%
X94250000Y-73162500D03*
%TO.P,U1,14,PA4_14*%
%TO.N,unconnected-(U1-PA4-Pad14)*%
X94750000Y-73162500D03*
%TO.P,U1,15,PA5_15*%
%TO.N,unconnected-(U1-PA5-Pad15)*%
X95250000Y-73162500D03*
%TO.P,U1,16,PA6_16*%
%TO.N,unconnected-(U1-PA6-Pad16)*%
X95750000Y-73162500D03*
%TO.P,U1,17,PA7_17*%
%TO.N,unconnected-(U1-PA7-Pad17)*%
X96250000Y-73162500D03*
%TO.P,U1,18,PB0_18*%
%TO.N,unconnected-(U1-PB0-Pad18)*%
X96750000Y-73162500D03*
%TO.P,U1,19,PB1_19*%
%TO.N,unconnected-(U1-PB1-Pad19)*%
X97250000Y-73162500D03*
%TO.P,U1,20,PB2_20*%
%TO.N,unconnected-(U1-PB2-Pad20)*%
X97750000Y-73162500D03*
%TO.P,U1,21,PB10_21*%
%TO.N,/I2C2_SCL*%
X98250000Y-73162500D03*
%TO.P,U1,22,PB11_22*%
%TO.N,/I2C2_SDA*%
X98750000Y-73162500D03*
%TO.P,U1,23,VSS_23*%
%TO.N,GND*%
X99250000Y-73162500D03*
%TO.P,U1,24,VDD_24*%
%TO.N,+3.3V*%
X99750000Y-73162500D03*
D18*
%TO.P,U1,25,PB12_25*%
%TO.N,unconnected-(U1-PB12-Pad25)*%
X101162500Y-71750000D03*
%TO.P,U1,26,PB13_26*%
%TO.N,unconnected-(U1-PB13-Pad26)*%
X101162500Y-71250000D03*
%TO.P,U1,27,PB14_27*%
%TO.N,unconnected-(U1-PB14-Pad27)*%
X101162500Y-70750000D03*
%TO.P,U1,28,PB15_28*%
%TO.N,unconnected-(U1-PB15-Pad28)*%
X101162500Y-70250000D03*
%TO.P,U1,29,PA8_29*%
%TO.N,unconnected-(U1-PA8-Pad29)*%
X101162500Y-69750000D03*
%TO.P,U1,30,PA9_30*%
%TO.N,unconnected-(U1-PA9-Pad30)*%
X101162500Y-69250000D03*
%TO.P,U1,31,PA10_31*%
%TO.N,unconnected-(U1-PA10-Pad31)*%
X101162500Y-68750000D03*
%TO.P,U1,32,PA11_32*%
%TO.N,/USB_D-*%
X101162500Y-68250000D03*
%TO.P,U1,33,PA12_33*%
%TO.N,/USB_D+*%
X101162500Y-67750000D03*
%TO.P,U1,34,PA13_34*%
%TO.N,/SW_DIO*%
X101162500Y-67250000D03*
%TO.P,U1,35,VSS_35*%
%TO.N,GND*%
X101162500Y-66750000D03*
%TO.P,U1,36,VDD_36*%
%TO.N,+3.3V*%
X101162500Y-66250000D03*
D19*
%TO.P,U1,37,PA14_37*%
%TO.N,/SW_CLK*%
X99750000Y-64837500D03*
%TO.P,U1,38,PA15_38*%
%TO.N,unconnected-(U1-PA15-Pad38)*%
X99250000Y-64837500D03*
%TO.P,U1,39,PB3_39*%
%TO.N,unconnected-(U1-PB3-Pad39)*%
X98750000Y-64837500D03*
%TO.P,U1,40,PB4_40*%
%TO.N,unconnected-(U1-PB4-Pad40)*%
X98250000Y-64837500D03*
%TO.P,U1,41,PB5_41*%
%TO.N,unconnected-(U1-PB5-Pad41)*%
X97750000Y-64837500D03*
%TO.P,U1,42,PB6_42*%
%TO.N,/UART1_TX*%
X97250000Y-64837500D03*
%TO.P,U1,43,PB7_43*%
%TO.N,/UART1_RX*%
X96750000Y-64837500D03*
%TO.P,U1,44,BOOT0_44*%
%TO.N,/BOOT0*%
X96250000Y-64837500D03*
%TO.P,U1,45,PB8_45*%
%TO.N,unconnected-(U1-PB8-Pad45)*%
X95750000Y-64837500D03*
%TO.P,U1,46,PB9_46*%
%TO.N,unconnected-(U1-PB9-Pad46)*%
X95250000Y-64837500D03*
%TO.P,U1,47,VSS_47*%
%TO.N,GND*%
X94750000Y-64837500D03*
%TO.P,U1,48,VDD_48*%
%TO.N,+3.3V*%
X94250000Y-64837500D03*
%TD*%
D20*
%TO.P,C12,1*%
%TO.N,VBUS*%
X105225000Y-71275000D03*
%TO.P,C12,2*%
%TO.N,GND*%
X107125000Y-71275000D03*
%TD*%
D21*
%TO.P,R4,1*%
%TO.N,+3.3V*%
X93167500Y-79000000D03*
%TO.P,R4,2*%
%TO.N,/I2C2_SCL*%
X91972500Y-79000000D03*
%TD*%
D22*
%TO.P,U2,1,GND_1*%
%TO.N,GND*%
X108300000Y-73850000D03*
%TO.P,U2,2,VO_2*%
%TO.N,+3.3V*%
X106000000Y-73850000D03*
D23*
X106000000Y-80150000D03*
D22*
%TO.P,U2,3,VI_3*%
%TO.N,VBUS*%
X103700000Y-73850000D03*
%TD*%
D16*
%TO.P,C7,1*%
%TO.N,+3.3VA*%
X90900000Y-73457500D03*
%TO.P,C7,2*%
%TO.N,GND*%
X89940000Y-73457500D03*
%TD*%
D10*
%TO.P,J3,1,Pin_1_1*%
%TO.N,+3.3V*%
X97010000Y-54250000D03*
D11*
%TO.P,J3,2,Pin_2_2*%
%TO.N,/UART1_TX*%
X94470000Y-54250000D03*
%TO.P,J3,3,Pin_3_3*%
%TO.N,/UART1_RX*%
X91930000Y-54250000D03*
%TO.P,J3,4,Pin_4_4*%
%TO.N,GND*%
X89390000Y-54250000D03*
%TD*%
D24*
%TO.P,C5,1*%
%TO.N,+3.3V*%
X93650000Y-61325000D03*
%TO.P,C5,2*%
%TO.N,GND*%
X95200000Y-61325000D03*
%TD*%
D25*
%TO.P,C9,1*%
%TO.N,/NRST*%
X94320000Y-75200000D03*
%TO.P,C9,2*%
%TO.N,GND*%
X95280000Y-75200000D03*
%TD*%
D26*
%TO.P,D1,1,K_1*%
%TO.N,/PWR_LED_K*%
X114390000Y-76382500D03*
%TO.P,D1,2,A_2*%
%TO.N,+3.3V*%
X114390000Y-77957500D03*
%TD*%
D27*
%TO.P,J1,1,VBUS_1*%
%TO.N,VBUS*%
X114590000Y-69040000D03*
%TO.P,J1,2,D-_2*%
%TO.N,/USB_D-*%
X114590000Y-68390000D03*
%TO.P,J1,3,D+_3*%
%TO.N,/USB_D+*%
X114590000Y-67740000D03*
%TO.P,J1,4,ID_4*%
%TO.N,unconnected-(J1-ID-Pad4)*%
X114590000Y-67090000D03*
%TO.P,J1,5,GND_5*%
%TO.N,GND*%
X114590000Y-66440000D03*
D28*
%TO.P,J1,SH,Shield_SH*%
%TO.N,unconnected-(J1-Shield-PadSH)*%
X118440000Y-71615000D03*
D29*
%TO.N,unconnected-(J1-Shield-PadSH)_2*%
X114640000Y-71465000D03*
%TO.N,unconnected-(J1-Shield-PadSH)_1*%
X114640000Y-64015000D03*
D28*
%TO.N,unconnected-(J1-Shield-PadSH)_3*%
X118440000Y-63865000D03*
%TD*%
D30*
%TO.P,R1,1*%
%TO.N,/SW_BOOT0*%
X85910000Y-61560000D03*
%TO.P,R1,2*%
%TO.N,/BOOT0*%
X85910000Y-60540000D03*
%TD*%
D21*
%TO.P,R3,1*%
%TO.N,/PWR_LED_K*%
X115000000Y-74500000D03*
%TO.P,R3,2*%
%TO.N,GND*%
X113805000Y-74500000D03*
%TD*%
D15*
%TO.P,C11,1*%
%TO.N,GND*%
X89600000Y-70580000D03*
%TO.P,C11,2*%
%TO.N,/OSC_OUT*%
X89600000Y-69620000D03*
%TD*%
D16*
%TO.P,C8,1*%
%TO.N,+3.3V*%
X90925000Y-74982500D03*
%TO.P,C8,2*%
%TO.N,GND*%
X89965000Y-74982500D03*
%TD*%
D25*
%TO.P,C1,1*%
%TO.N,+3.3V*%
X93975000Y-63025000D03*
%TO.P,C1,2*%
%TO.N,GND*%
X94935000Y-63025000D03*
%TD*%
D26*
%TO.P,FB1,1*%
%TO.N,+3.3VA*%
X92190000Y-73430000D03*
%TO.P,FB1,2*%
%TO.N,+3.3V*%
X92190000Y-75005000D03*
%TD*%
D15*
%TO.P,C10,1*%
%TO.N,/OSC_IN*%
X89575000Y-68505000D03*
%TO.P,C10,2*%
%TO.N,GND*%
X89575000Y-67545000D03*
%TD*%
D10*
%TO.P,J4,1,Pin_1_1*%
%TO.N,+3.3V*%
X89380000Y-82750000D03*
D11*
%TO.P,J4,2,Pin_2_2*%
%TO.N,/I2C2_SCL*%
X91920000Y-82750000D03*
%TO.P,J4,3,Pin_3_3*%
%TO.N,/I2C2_SDA*%
X94460000Y-82750000D03*
%TO.P,J4,4,Pin_4_4*%
%TO.N,GND*%
X97000000Y-82750000D03*
%TD*%
D31*
%TO.P,C13,1*%
%TO.N,+3.3V*%
X111000000Y-77950000D03*
%TO.P,C13,2*%
%TO.N,GND*%
X111000000Y-76050000D03*
%TD*%
D32*
%TO.P,C2,1*%
%TO.N,+3.3V*%
X103275000Y-66020000D03*
%TO.P,C2,2*%
%TO.N,GND*%
X103275000Y-66980000D03*
%TD*%
D33*
%TO.P,R5,1*%
%TO.N,+3.3V*%
X94500000Y-79000000D03*
%TO.P,R5,2*%
%TO.N,/I2C2_SDA*%
X95695000Y-79000000D03*
%TD*%
D34*
%TO.N,+3.3V*%
X92910000Y-80430000D03*
X98615000Y-77550000D03*
D35*
X116600000Y-62020000D03*
D34*
X97100000Y-77510000D03*
D35*
X116590000Y-77110000D03*
X91090000Y-80470000D03*
%TO.N,GND*%
X87580000Y-66310000D03*
X89600000Y-71560000D03*
X89940000Y-76042500D03*
X108890000Y-75520000D03*
X107840000Y-75540000D03*
X113120000Y-73490000D03*
X108870000Y-70830000D03*
X104240000Y-67100000D03*
X112160000Y-65710000D03*
X99270000Y-71590000D03*
X84190000Y-59280000D03*
X85880000Y-71820000D03*
X91030000Y-64110000D03*
X96450000Y-75180000D03*
X89940000Y-72570000D03*
X89540000Y-66530000D03*
X112160000Y-75980000D03*
X108890000Y-71800000D03*
X94320000Y-70150000D03*
X94780000Y-66590000D03*
%TD*%
%TO.N,+3.3V*%
D36*
X101120000Y-76740000D02*
X100210000Y-75830000D01*
X92167500Y-74982500D02*
X92190000Y-75005000D01*
D37*
X92210000Y-63410000D02*
X92210000Y-61325000D01*
D36*
X111800000Y-82670000D02*
X102230000Y-82670000D01*
D37*
X91050000Y-66255000D02*
X91055000Y-66250000D01*
D36*
X110810000Y-61240000D02*
X110810000Y-65750000D01*
X102190000Y-82710000D02*
X101120000Y-81640000D01*
X93167500Y-80172500D02*
X92910000Y-80430000D01*
X109510000Y-52950000D02*
X98310000Y-52950000D01*
X92190000Y-75005000D02*
X89950000Y-77245000D01*
X111000000Y-77950000D02*
X112690000Y-77950000D01*
D37*
X103275000Y-66020000D02*
X102730000Y-66020000D01*
D36*
X94500000Y-78130000D02*
X95120000Y-77510000D01*
X88010000Y-64750000D02*
X91435000Y-61325000D01*
X107670000Y-66740000D02*
X106160000Y-65230000D01*
X91435000Y-61325000D02*
X92210000Y-61325000D01*
X84640000Y-75390000D02*
X89170000Y-79920000D01*
X89170000Y-79920000D02*
X89950000Y-79920000D01*
X110810000Y-61240000D02*
X115820000Y-61240000D01*
X89950000Y-79920000D02*
X89950000Y-80470000D01*
X93650000Y-62150000D02*
X93975000Y-62475000D01*
X116590000Y-77110000D02*
X115742500Y-77957500D01*
D37*
X93975000Y-63725000D02*
X93975000Y-63025000D01*
D36*
X112690000Y-77950000D02*
X114382500Y-77950000D01*
X104065000Y-65230000D02*
X103275000Y-66020000D01*
X106160000Y-65230000D02*
X104065000Y-65230000D01*
X93650000Y-61325000D02*
X93650000Y-62150000D01*
D37*
X99750000Y-73162500D02*
X99750000Y-74090000D01*
X102730000Y-66020000D02*
X102500000Y-66250000D01*
D36*
X89950000Y-77245000D02*
X89950000Y-79920000D01*
D37*
X94250000Y-64000000D02*
X93975000Y-63725000D01*
D36*
X115820000Y-61240000D02*
X116600000Y-62020000D01*
X110810000Y-65750000D02*
X109820000Y-66740000D01*
X90925000Y-74982500D02*
X92167500Y-74982500D01*
X93975000Y-62475000D02*
X93975000Y-63025000D01*
X101120000Y-77550000D02*
X101120000Y-76740000D01*
X84640000Y-64750000D02*
X84640000Y-75390000D01*
X89380000Y-81040000D02*
X89380000Y-82750000D01*
X91090000Y-80470000D02*
X89950000Y-80470000D01*
X115742500Y-77957500D02*
X114390000Y-77957500D01*
X93167500Y-79000000D02*
X93167500Y-80172500D01*
D37*
X94250000Y-64837500D02*
X94250000Y-64000000D01*
D36*
X100210000Y-75830000D02*
X100210000Y-74990000D01*
X95120000Y-77510000D02*
X97100000Y-77510000D01*
D37*
X92837500Y-66250000D02*
X92837500Y-64037500D01*
D36*
X98310000Y-52950000D02*
X97010000Y-54250000D01*
D37*
X99750000Y-74090000D02*
X100210000Y-74550000D01*
D36*
X101120000Y-81640000D02*
X101120000Y-77550000D01*
D37*
X100210000Y-74550000D02*
X100210000Y-74990000D01*
D36*
X110810000Y-54250000D02*
X110810000Y-61240000D01*
D37*
X102500000Y-66250000D02*
X101162500Y-66250000D01*
D36*
X98615000Y-77550000D02*
X101120000Y-77550000D01*
X112690000Y-77950000D02*
X112690000Y-81780000D01*
X84640000Y-64750000D02*
X88010000Y-64750000D01*
X114382500Y-77950000D02*
X114390000Y-77957500D01*
X92210000Y-61325000D02*
X93650000Y-61325000D01*
X82930000Y-64750000D02*
X84640000Y-64750000D01*
X102230000Y-82670000D02*
X102190000Y-82710000D01*
D37*
X92837500Y-64037500D02*
X92210000Y-63410000D01*
D36*
X109820000Y-66740000D02*
X107670000Y-66740000D01*
X89950000Y-80470000D02*
X89380000Y-81040000D01*
D37*
X91055000Y-66250000D02*
X92837500Y-66250000D01*
D36*
X94500000Y-79000000D02*
X94500000Y-78130000D01*
X93167500Y-79000000D02*
X94500000Y-79000000D01*
X110810000Y-54250000D02*
X109510000Y-52950000D01*
X112690000Y-81780000D02*
X111800000Y-82670000D01*
%TO.N,/SW_DIO*%
D37*
X100321880Y-67250000D02*
X100075000Y-67003120D01*
X100075000Y-67003120D02*
X100075000Y-65853120D01*
X100075000Y-65853120D02*
X108270000Y-57658120D01*
X108270000Y-57658120D02*
X108270000Y-54250000D01*
X101162500Y-67250000D02*
X100321880Y-67250000D01*
%TO.N,/SW_CLK*%
X99750000Y-64837500D02*
X99750000Y-63190000D01*
X99750000Y-63190000D02*
X105730000Y-57210000D01*
X105730000Y-57210000D02*
X105730000Y-54250000D01*
%TO.N,GND*%
X91050000Y-64130000D02*
X91030000Y-64110000D01*
X114590000Y-66440000D02*
X112890000Y-66440000D01*
X101162500Y-66750000D02*
X102500000Y-66750000D01*
X92837500Y-69750000D02*
X93920000Y-69750000D01*
X99250000Y-73162500D02*
X99250000Y-71610000D01*
X95000000Y-63750000D02*
X95000000Y-63090000D01*
X103275000Y-66980000D02*
X104120000Y-66980000D01*
D36*
X82930000Y-60250000D02*
X84050000Y-60250000D01*
D37*
X102730000Y-66980000D02*
X103275000Y-66980000D01*
X99250000Y-71610000D02*
X99270000Y-71590000D01*
D36*
X89965000Y-74982500D02*
X89965000Y-76017500D01*
D37*
X91750000Y-69503120D02*
X91750000Y-69500000D01*
D36*
X89575000Y-67545000D02*
X89575000Y-66565000D01*
X91050000Y-65295000D02*
X91050000Y-64130000D01*
X85900000Y-70050000D02*
X85900000Y-71800000D01*
D37*
X93920000Y-69750000D02*
X94320000Y-70150000D01*
D36*
X84050000Y-60250000D02*
X84170000Y-60130000D01*
X113805000Y-74500000D02*
X113805000Y-74175000D01*
D37*
X91996880Y-69750000D02*
X91750000Y-69503120D01*
X92837500Y-69750000D02*
X91996880Y-69750000D01*
D36*
X89575000Y-66565000D02*
X89540000Y-66530000D01*
X89600000Y-70580000D02*
X89600000Y-71560000D01*
D37*
X94750000Y-64837500D02*
X94750000Y-63996880D01*
D36*
X85900000Y-71800000D02*
X85880000Y-71820000D01*
D37*
X96430000Y-75200000D02*
X96450000Y-75180000D01*
X94750000Y-66560000D02*
X94780000Y-66590000D01*
D36*
X95200000Y-61325000D02*
X95200000Y-62050000D01*
X87600000Y-66330000D02*
X87580000Y-66310000D01*
D37*
X99250000Y-73162500D02*
X99250000Y-74990000D01*
D36*
X113805000Y-74175000D02*
X113120000Y-73490000D01*
D37*
X94996880Y-63750000D02*
X95000000Y-63750000D01*
X89965000Y-76017500D02*
X89940000Y-76042500D01*
X94750000Y-64837500D02*
X94750000Y-66560000D01*
X112890000Y-66440000D02*
X112160000Y-65710000D01*
X95000000Y-63090000D02*
X94935000Y-63025000D01*
D36*
X89940000Y-72570000D02*
X89940000Y-73457500D01*
D37*
X94750000Y-63996880D02*
X94996880Y-63750000D01*
X104120000Y-66980000D02*
X104240000Y-67100000D01*
D36*
X87600000Y-67850000D02*
X87600000Y-66330000D01*
D37*
X102500000Y-66750000D02*
X102730000Y-66980000D01*
D36*
X95200000Y-62050000D02*
X94935000Y-62315000D01*
X95280000Y-75200000D02*
X96430000Y-75200000D01*
X94935000Y-62315000D02*
X94935000Y-63025000D01*
D37*
X91750000Y-69500000D02*
X90925000Y-69500000D01*
D36*
X84170000Y-60130000D02*
X84170000Y-59300000D01*
X84170000Y-59300000D02*
X84190000Y-59280000D01*
%TO.N,/OSC_IN*%
D37*
X90292894Y-68250000D02*
X90037893Y-68505000D01*
X88995000Y-68505000D02*
X88500000Y-69000000D01*
X92837500Y-68250000D02*
X90292894Y-68250000D01*
X90037893Y-68505000D02*
X89575000Y-68505000D01*
X88500000Y-69000000D02*
X87050000Y-69000000D01*
X87050000Y-69000000D02*
X85900000Y-67850000D01*
X89575000Y-68505000D02*
X88995000Y-68505000D01*
%TO.N,/OSC_OUT*%
X90250000Y-69000000D02*
X90250000Y-69500000D01*
X88700000Y-70050000D02*
X87600000Y-70050000D01*
X92837500Y-68750000D02*
X90500000Y-68750000D01*
X90130000Y-69620000D02*
X89600000Y-69620000D01*
X89600000Y-69620000D02*
X89130000Y-69620000D01*
X89130000Y-69620000D02*
X88700000Y-70050000D01*
X90250000Y-69500000D02*
X90130000Y-69620000D01*
X90500000Y-68750000D02*
X90250000Y-69000000D01*
%TO.N,/SW_BOOT0*%
X84420000Y-62960000D02*
X84130000Y-63250000D01*
X84650000Y-61560000D02*
X84420000Y-61790000D01*
X84420000Y-61790000D02*
X84420000Y-62960000D01*
X84130000Y-63250000D02*
X82930000Y-63250000D01*
X85910000Y-61560000D02*
X84650000Y-61560000D01*
%TO.N,+3.3VA*%
D36*
X90900000Y-73457500D02*
X90900000Y-70485000D01*
D37*
X91750000Y-70496880D02*
X91750000Y-70500000D01*
D36*
X90900000Y-70485000D02*
X90925000Y-70460000D01*
X92190000Y-73430000D02*
X90927500Y-73430000D01*
D37*
X92837500Y-70250000D02*
X91996880Y-70250000D01*
X91750000Y-70500000D02*
X90965000Y-70500000D01*
X91996880Y-70250000D02*
X91750000Y-70496880D01*
D36*
X90927500Y-73430000D02*
X90900000Y-73457500D01*
D37*
X90965000Y-70500000D02*
X90925000Y-70460000D01*
%TO.N,/USB_D+*%
X108100000Y-67760000D02*
X106930000Y-67760000D01*
X106830000Y-67860000D02*
X102320226Y-67860000D01*
X108100000Y-67760000D02*
X114570000Y-67760000D01*
X102320226Y-67860000D02*
X102210226Y-67750000D01*
X102210226Y-67750000D02*
X101162500Y-67750000D01*
X106930000Y-67760000D02*
X106830000Y-67860000D01*
X114570000Y-67760000D02*
X114590000Y-67740000D01*
%TO.N,/NRST*%
X93490000Y-72520000D02*
X93490000Y-74810000D01*
X95350000Y-70000000D02*
X95350000Y-70660000D01*
X93880000Y-75200000D02*
X94320000Y-75200000D01*
X95350000Y-70660000D02*
X93490000Y-72520000D01*
X93490000Y-74810000D02*
X93880000Y-75200000D01*
X92837500Y-69250000D02*
X94600000Y-69250000D01*
X94600000Y-69250000D02*
X95350000Y-70000000D01*
%TO.N,/I2C2_SCL*%
X91972500Y-79000000D02*
X91972500Y-82697500D01*
X91972500Y-82697500D02*
X91920000Y-82750000D01*
X98250000Y-74000000D02*
X98250000Y-74003120D01*
X93380000Y-76300000D02*
X91970000Y-77710000D01*
X98000000Y-74250000D02*
X97150000Y-75100000D01*
X98250000Y-73162500D02*
X98250000Y-74000000D01*
X97150000Y-75469950D02*
X96319950Y-76300000D01*
X97150000Y-75100000D02*
X97150000Y-75469950D01*
X98250000Y-74003120D02*
X98003120Y-74250000D01*
X96319950Y-76300000D02*
X93380000Y-76300000D01*
X98003120Y-74250000D02*
X98000000Y-74250000D01*
X91970000Y-78997500D02*
X91972500Y-79000000D01*
X91970000Y-77710000D02*
X91970000Y-78997500D01*
%TO.N,/I2C2_SDA*%
X97890000Y-78190000D02*
X97080000Y-79000000D01*
X97080000Y-79000000D02*
X95695000Y-79000000D01*
X98750000Y-73162500D02*
X98750000Y-74483154D01*
X95695000Y-80185000D02*
X94460000Y-81420000D01*
X94460000Y-81420000D02*
X94460000Y-82750000D01*
X98750000Y-74483154D02*
X97890000Y-75343154D01*
X97890000Y-75343154D02*
X97890000Y-78190000D01*
X95695000Y-79000000D02*
X95695000Y-80185000D01*
%TO.N,/USB_D-*%
X101162500Y-68250000D02*
X102003120Y-68250000D01*
X102143120Y-68390000D02*
X114590000Y-68390000D01*
X102003120Y-68250000D02*
X102143120Y-68390000D01*
%TO.N,/UART1_TX*%
X94470000Y-56380000D02*
X94470000Y-54250000D01*
X97250000Y-64837500D02*
X97250000Y-63110000D01*
X96590000Y-56700000D02*
X94790000Y-56700000D01*
X97250000Y-63110000D02*
X98080000Y-62280000D01*
X94790000Y-56700000D02*
X94470000Y-56380000D01*
X98080000Y-62280000D02*
X98080000Y-58190000D01*
X98080000Y-58190000D02*
X96590000Y-56700000D01*
%TO.N,/UART1_RX*%
X96750000Y-64837500D02*
X96750000Y-62140000D01*
X96180000Y-57560000D02*
X93450000Y-57560000D01*
X96750000Y-62140000D02*
X97220000Y-61670000D01*
X97220000Y-58600000D02*
X96180000Y-57560000D01*
X91930000Y-56040000D02*
X91930000Y-54250000D01*
X97220000Y-61670000D02*
X97220000Y-58600000D01*
X93450000Y-57560000D02*
X91930000Y-56040000D01*
%TO.N,/BOOT0*%
X95762894Y-58310000D02*
X88090000Y-58310000D01*
X96250000Y-58797106D02*
X95762894Y-58310000D01*
X96250000Y-64837500D02*
X96250000Y-58797106D01*
X85910000Y-60490000D02*
X85910000Y-60540000D01*
X88090000Y-58310000D02*
X85910000Y-60490000D01*
%TO.N,/PWR_LED_K*%
D36*
X115000000Y-75772500D02*
X114390000Y-76382500D01*
X115000000Y-74500000D02*
X115000000Y-75772500D01*
%TD*%
%TA.AperFunction,Conductor*%
%TO.N,+3.3V*%
G36*
X106545111Y-72689452D02*
G01*
X106553633Y-72695329D01*
X106736766Y-72833248D01*
X106895745Y-72952976D01*
X106937454Y-73009030D01*
X106945147Y-73051543D01*
X106945572Y-73160000D01*
X106960000Y-76846011D01*
X107200000Y-77250000D01*
X111477735Y-77259902D01*
X111544729Y-77279742D01*
X111553400Y-77285885D01*
X111872877Y-77533480D01*
X111913807Y-77590104D01*
X111920903Y-77629611D01*
X111929570Y-78201634D01*
X111918053Y-78255731D01*
X111800000Y-78509998D01*
X111799999Y-78510002D01*
X111798094Y-81050959D01*
X111789424Y-81080403D01*
X111782876Y-81110385D01*
X111779122Y-81115389D01*
X111778359Y-81117984D01*
X111761701Y-81138621D01*
X111606164Y-81293896D01*
X111544813Y-81327329D01*
X111518901Y-81330141D01*
X104397731Y-81349895D01*
X104330637Y-81330396D01*
X104328604Y-81329069D01*
X103994869Y-81106579D01*
X103950008Y-81053014D01*
X103939654Y-81004057D01*
X103930006Y-79161178D01*
X103930017Y-79158788D01*
X103952507Y-77590104D01*
X103969328Y-76416822D01*
X103989971Y-76350075D01*
X104001450Y-76335315D01*
X105040000Y-75190000D01*
X105049784Y-73203677D01*
X105069798Y-73136739D01*
X105077525Y-73126122D01*
X105403227Y-72725258D01*
X105460776Y-72685644D01*
X105498313Y-72679460D01*
X106477895Y-72670389D01*
X106545111Y-72689452D01*
G37*
%TD.AperFunction*%
%TD*%
%TA.AperFunction,Conductor*%
%TO.N,VBUS*%
G36*
X113790647Y-68843924D02*
G01*
X113818406Y-68850588D01*
X113845754Y-68860678D01*
X113849467Y-68862570D01*
X113882441Y-68893714D01*
X113918481Y-68899422D01*
X113928030Y-68901321D01*
X113928045Y-68901324D01*
X113932916Y-68901707D01*
X113966618Y-68907045D01*
X114019997Y-68915500D01*
X115145358Y-68915499D01*
X115157876Y-68916132D01*
X115165000Y-68916854D01*
X115165012Y-68917007D01*
X115175684Y-68918384D01*
X115177515Y-68918124D01*
X115186437Y-68919030D01*
X115212876Y-68929797D01*
X115240312Y-68937669D01*
X115244818Y-68942804D01*
X115251147Y-68945382D01*
X115267558Y-68968719D01*
X115278897Y-68981642D01*
X115280619Y-68980533D01*
X115280657Y-68980592D01*
X115282012Y-68985192D01*
X115286388Y-68990179D01*
X115288839Y-68995458D01*
X115286970Y-68996325D01*
X115291337Y-69002535D01*
X115292031Y-69019188D01*
X115300408Y-69047612D01*
X115300408Y-69048000D01*
X115300172Y-69158527D01*
X115299330Y-69164293D01*
X115295075Y-69193449D01*
X115288811Y-69214616D01*
X115259629Y-69265022D01*
X115256311Y-69268500D01*
X115251102Y-69273018D01*
X115250912Y-69273314D01*
X115250597Y-69273456D01*
X115238663Y-69283811D01*
X115213877Y-69301515D01*
X115182529Y-69317733D01*
X115152746Y-69328089D01*
X115111971Y-69334967D01*
X106468949Y-69331476D01*
X105940000Y-69860000D01*
X105940000Y-72062743D01*
X105934977Y-72097678D01*
X105930544Y-72112775D01*
X105892910Y-72171430D01*
X105892769Y-72171551D01*
X105892769Y-72171553D01*
X105892767Y-72171553D01*
X105881234Y-72181578D01*
X105851741Y-72200626D01*
X105490091Y-72367099D01*
X105450983Y-72377458D01*
X105450994Y-72377548D01*
X105451009Y-72377635D01*
X105451005Y-72377635D01*
X105451017Y-72377726D01*
X105449036Y-72377974D01*
X105448955Y-72377996D01*
X105448665Y-72378021D01*
X105411096Y-72384210D01*
X105390156Y-72388417D01*
X105287561Y-72433996D01*
X105287554Y-72434000D01*
X105230008Y-72473612D01*
X105215922Y-72486620D01*
X105183647Y-72508160D01*
X104680000Y-72739998D01*
X104680000Y-74619360D01*
X104679999Y-74619363D01*
X104680000Y-74619365D01*
X104674976Y-74654300D01*
X104666604Y-74682808D01*
X104645217Y-74724369D01*
X104486592Y-74926720D01*
X104461084Y-74951117D01*
X104441508Y-74965102D01*
X104391259Y-74986267D01*
X104390001Y-74986492D01*
X104370413Y-74988409D01*
X103092622Y-75011538D01*
X103092619Y-75011537D01*
X103092619Y-75011538D01*
X103057600Y-75007147D01*
X103035549Y-75001103D01*
X102985671Y-74973948D01*
X102983128Y-74971674D01*
X102976601Y-74964708D01*
X102976097Y-74964397D01*
X102975874Y-74963932D01*
X102968173Y-74955713D01*
X102964572Y-74951117D01*
X102891135Y-74857381D01*
X102797384Y-74737716D01*
X102779793Y-74707118D01*
X102768798Y-74679507D01*
X102760000Y-74633632D01*
X102760000Y-72884974D01*
X102765023Y-72850039D01*
X102772012Y-72826237D01*
X102809787Y-72767459D01*
X102810354Y-72766970D01*
X103310000Y-72340000D01*
X103310000Y-72339999D01*
X103310000Y-72339998D01*
X103310001Y-72339998D01*
X103310002Y-72339995D01*
X103310006Y-72339362D01*
X103312447Y-72080572D01*
X103338348Y-69334967D01*
X103339352Y-69228493D01*
X103344704Y-69193617D01*
X103352416Y-69168242D01*
X103383374Y-69116624D01*
X103610576Y-68889423D01*
X103638826Y-68868275D01*
X103661918Y-68855667D01*
X103721343Y-68840500D01*
X113761708Y-68840500D01*
X113790647Y-68843924D01*
G37*
%TD.AperFunction*%
%TD*%
%TA.AperFunction,Conductor*%
%TO.N,GND*%
G36*
X108859289Y-70175021D02*
G01*
X108890948Y-70184318D01*
X108925201Y-70200393D01*
X109390405Y-70513203D01*
X109416588Y-70536863D01*
X109430055Y-70553074D01*
X109456105Y-70607202D01*
X109457431Y-70613615D01*
X109460000Y-70638723D01*
X109460000Y-72100000D01*
X109470000Y-74720000D01*
X109824457Y-75002253D01*
X110007385Y-75147918D01*
X110009144Y-75149346D01*
X110010851Y-75150757D01*
X110012547Y-75152184D01*
X110103900Y-75230486D01*
X110150000Y-75270000D01*
X112152603Y-75270000D01*
X112187535Y-75275022D01*
X112195377Y-75277324D01*
X112217926Y-75283945D01*
X112254809Y-75301838D01*
X112419561Y-75418899D01*
X112523287Y-75492599D01*
X112548856Y-75516928D01*
X112562427Y-75534148D01*
X112586778Y-75587344D01*
X112587742Y-75592326D01*
X112590000Y-75615883D01*
X112590000Y-76355901D01*
X112589999Y-76355902D01*
X112590000Y-76355903D01*
X112584977Y-76390838D01*
X112577931Y-76414833D01*
X112540609Y-76473215D01*
X112318480Y-76667578D01*
X112288884Y-76686802D01*
X112281290Y-76690315D01*
X112263500Y-76698543D01*
X112211443Y-76710000D01*
X107731477Y-76710000D01*
X107731475Y-76709999D01*
X107731475Y-76710000D01*
X107696541Y-76704977D01*
X107671919Y-76697747D01*
X107616478Y-76663670D01*
X107395826Y-76428782D01*
X107375572Y-76399885D01*
X107363362Y-76375764D01*
X107350000Y-76319770D01*
X107350000Y-72509998D01*
X107130000Y-72210000D01*
X106683496Y-72210000D01*
X106683491Y-72209999D01*
X106683490Y-72210000D01*
X106648555Y-72204975D01*
X106632054Y-72200129D01*
X106575205Y-72164524D01*
X106566393Y-72154822D01*
X106547913Y-72128165D01*
X106533441Y-72100025D01*
X106533440Y-72100023D01*
X106533440Y-72100024D01*
X106429623Y-71898157D01*
X106419669Y-71871804D01*
X106412906Y-71845019D01*
X106409158Y-71817102D01*
X106380987Y-70380361D01*
X106384536Y-70349206D01*
X106385113Y-70343078D01*
X106392937Y-70309910D01*
X106393353Y-70308834D01*
X106400903Y-70292835D01*
X106425706Y-70248742D01*
X106447211Y-70220759D01*
X106460416Y-70207883D01*
X106517077Y-70176323D01*
X106527795Y-70173659D01*
X106557700Y-70170000D01*
X108824357Y-70170000D01*
X108859289Y-70175021D01*
G37*
%TD.AperFunction*%
%TD*%
M02*
