M48
; DRILL file KiCad 10.0.1 date 2026-06-22T18:35:08
; FORMAT={-:-/ absolute / metric / decimal}
; #@! TF.CreationDate,2026-06-22T18:35:08+05:30
; #@! TF.GenerationSoftware,Kicad,Pcbnew,10.0.1
; #@! TF.FileFunction,MixedPlating,1,2
FMAT,2
METRIC
; #@! TA.AperFunction,Plated,PTH,ViaDrill
T1C0.300
; #@! TA.AperFunction,Plated,PTH,ComponentDrill
T2C0.550
; #@! TA.AperFunction,Plated,PTH,ComponentDrill
T3C0.850
; #@! TA.AperFunction,Plated,PTH,ComponentDrill
T4C1.000
; #@! TA.AperFunction,NonPlated,NPTH,ComponentDrill
T5C0.800
; #@! TA.AperFunction,NonPlated,NPTH,ComponentDrill
T6C0.900
; #@! TA.AperFunction,NonPlated,NPTH,ComponentDrill
T7C2.200
%
G90
G05
T1
X84.19Y-59.28
X85.88Y-71.82
X87.58Y-66.31
X89.54Y-66.53
X89.6Y-71.56
X89.94Y-72.57
X89.94Y-76.042
X91.03Y-64.11
X91.09Y-80.47
X92.91Y-80.43
X94.32Y-70.15
X94.78Y-66.59
X96.45Y-75.18
X97.1Y-77.51
X98.615Y-77.55
X99.27Y-71.59
X104.24Y-67.1
X107.84Y-75.54
X108.87Y-70.83
X108.89Y-71.8
X108.89Y-75.52
X112.16Y-65.71
X112.16Y-75.98
X113.12Y-73.49
X116.59Y-77.11
X116.6Y-62.02
T4
X89.38Y-82.75
X89.39Y-54.25
X91.92Y-82.75
X91.93Y-54.25
X94.46Y-82.75
X94.47Y-54.25
X97.0Y-82.75
X97.01Y-54.25
X103.19Y-54.25
X105.73Y-54.25
X108.27Y-54.25
X110.81Y-54.25
T5
X115.69Y-65.24
X115.69Y-70.24
T6
X81.17Y-61.0
X81.17Y-64.0
T7
X82.0Y-55.0
X82.0Y-82.0
X117.5Y-55.0
X117.5Y-82.0
T2
G00X118.115Y-63.865
M15
G01X118.765Y-63.865
M16
G05
G00X118.115Y-71.615
M15
G01X118.765Y-71.615
M16
G05
T3
G00X114.365Y-64.015
M15
G01X114.915Y-64.015
M16
G05
G00X114.365Y-71.465
M15
G01X114.915Y-71.465
M16
G05
M30
