%TF.GenerationSoftware,KiCad,Pcbnew,10.0.1*%
%TF.CreationDate,2026-06-22T18:35:09+05:30*%
%TF.ProjectId,STM32F103C8T6,53544d33-3246-4313-9033-433854362e6b,rev?*%
%TF.SameCoordinates,Original*%
%TF.FileFunction,Copper,L2,Bot*%
%TF.FilePolarity,Positive*%
%FSLAX46Y46*%
G04 Gerber Fmt 4.6, Leading zero omitted, Abs format (unit mm)*
G04 Created by KiCad (PCBNEW 10.0.1) date 2026-06-22 18:35:09*
%MOMM*%
%LPD*%
G01*
G04 APERTURE LIST*
%TA.AperFunction,ComponentPad*%
%ADD10R,1.700000X1.700000*%
%TD*%
%TA.AperFunction,ComponentPad*%
%ADD11C,1.700000*%
%TD*%
%TA.AperFunction,ComponentPad*%
%ADD12O,1.800000X1.150000*%
%TD*%
%TA.AperFunction,ComponentPad*%
%ADD13O,2.000000X1.450000*%
%TD*%
%TA.AperFunction,ViaPad*%
%ADD14C,0.750000*%
%TD*%
%TA.AperFunction,ViaPad*%
%ADD15C,0.700000*%
%TD*%
%TA.AperFunction,Conductor*%
%ADD16C,0.500000*%
%TD*%
G04 APERTURE END LIST*
D10*
%TO.P,J2,1,Pin_1_1*%
%TO.N,+3.3V*%
X110810000Y-54250000D03*
D11*
%TO.P,J2,2,Pin_2_2*%
%TO.N,/SW_DIO*%
X108270000Y-54250000D03*
%TO.P,J2,3,Pin_3_3*%
%TO.N,/SW_CLK*%
X105730000Y-54250000D03*
%TO.P,J2,4,Pin_4_4*%
%TO.N,GND*%
X103190000Y-54250000D03*
%TD*%
D10*
%TO.P,J3,1,Pin_1_1*%
%TO.N,+3.3V*%
X97010000Y-54250000D03*
D11*
%TO.P,J3,2,Pin_2_2*%
%TO.N,/UART1_TX*%
X94470000Y-54250000D03*
%TO.P,J3,3,Pin_3_3*%
%TO.N,/UART1_RX*%
X91930000Y-54250000D03*
%TO.P,J3,4,Pin_4_4*%
%TO.N,GND*%
X89390000Y-54250000D03*
%TD*%
D12*
%TO.P,J1,SH,Shield_SH*%
%TO.N,unconnected-(J1-Shield-PadSH)*%
X118440000Y-71615000D03*
D13*
%TO.N,unconnected-(J1-Shield-PadSH)_2*%
X114640000Y-71465000D03*
%TO.N,unconnected-(J1-Shield-PadSH)_1*%
X114640000Y-64015000D03*
D12*
%TO.N,unconnected-(J1-Shield-PadSH)_3*%
X118440000Y-63865000D03*
%TD*%
D10*
%TO.P,J4,1,Pin_1_1*%
%TO.N,+3.3V*%
X89380000Y-82750000D03*
D11*
%TO.P,J4,2,Pin_2_2*%
%TO.N,/I2C2_SCL*%
X91920000Y-82750000D03*
%TO.P,J4,3,Pin_3_3*%
%TO.N,/I2C2_SDA*%
X94460000Y-82750000D03*
%TO.P,J4,4,Pin_4_4*%
%TO.N,GND*%
X97000000Y-82750000D03*
%TD*%
D14*
%TO.N,+3.3V*%
X92910000Y-80430000D03*
X98615000Y-77550000D03*
D15*
X116600000Y-62020000D03*
D14*
X97100000Y-77510000D03*
D15*
X116590000Y-77110000D03*
X91090000Y-80470000D03*
%TO.N,GND*%
X87580000Y-66310000D03*
X89600000Y-71560000D03*
X89940000Y-76042500D03*
X108890000Y-75520000D03*
X107840000Y-75540000D03*
X113120000Y-73490000D03*
X108870000Y-70830000D03*
X104240000Y-67100000D03*
X112160000Y-65710000D03*
X99270000Y-71590000D03*
X84190000Y-59280000D03*
X85880000Y-71820000D03*
X91030000Y-64110000D03*
X96450000Y-75180000D03*
X89940000Y-72570000D03*
X89540000Y-66530000D03*
X112160000Y-75980000D03*
X108890000Y-71800000D03*
X94320000Y-70150000D03*
X94780000Y-66590000D03*
%TD*%
%TO.N,+3.3V*%
D16*
X92910000Y-80430000D02*
X91130000Y-80430000D01*
X98530000Y-77510000D02*
X97100000Y-77510000D01*
X98615000Y-77550000D02*
X98570000Y-77550000D01*
X98570000Y-77550000D02*
X98530000Y-77510000D01*
X116600000Y-62020000D02*
X116600000Y-77100000D01*
X116600000Y-77100000D02*
X116590000Y-77110000D01*
X91130000Y-80430000D02*
X91090000Y-80470000D01*
%TD*%
%TA.AperFunction,Conductor*%
%TO.N,GND*%
G36*
X118513407Y-52235293D02*
G01*
X118785201Y-52297264D01*
X118813925Y-52307674D01*
X118847859Y-52324965D01*
X118851528Y-52326913D01*
X118915000Y-52361992D01*
X119047430Y-52435184D01*
X119062841Y-52443701D01*
X119070373Y-52448220D01*
X119130701Y-52487397D01*
X119134894Y-52490245D01*
X119337970Y-52634335D01*
X119344249Y-52639098D01*
X119399920Y-52684179D01*
X119404488Y-52688066D01*
X119587125Y-52851281D01*
X119592179Y-52856059D01*
X119643939Y-52907819D01*
X119648717Y-52912873D01*
X119811932Y-53095510D01*
X119815826Y-53100087D01*
X119823152Y-53109133D01*
X119860900Y-53155749D01*
X119865663Y-53162028D01*
X120009753Y-53365104D01*
X120012618Y-53369324D01*
X120067598Y-53453986D01*
X120072131Y-53461540D01*
X120145235Y-53593812D01*
X120147191Y-53597497D01*
X120177120Y-53656235D01*
X120187521Y-53684911D01*
X120232886Y-53883460D01*
X120236001Y-53911024D01*
X120242507Y-68244601D01*
X120249225Y-83045817D01*
X120246122Y-83073438D01*
X120193875Y-83302586D01*
X120183463Y-83331315D01*
X120158843Y-83379635D01*
X120156886Y-83383322D01*
X120065510Y-83548655D01*
X120060977Y-83556210D01*
X120012618Y-83630675D01*
X120009753Y-83634894D01*
X119865663Y-83837970D01*
X119860900Y-83844249D01*
X119815840Y-83899895D01*
X119811932Y-83904488D01*
X119648717Y-84087125D01*
X119643939Y-84092179D01*
X119592179Y-84143939D01*
X119587125Y-84148717D01*
X119404488Y-84311932D01*
X119399895Y-84315840D01*
X119344249Y-84360900D01*
X119337970Y-84365663D01*
X119134894Y-84509753D01*
X119130675Y-84512618D01*
X119056746Y-84560629D01*
X119049191Y-84565162D01*
X118882139Y-84657488D01*
X118878453Y-84659445D01*
X118830636Y-84683809D01*
X118801934Y-84694215D01*
X118571151Y-84746891D01*
X118543558Y-84750000D01*
X80956442Y-84750000D01*
X80928849Y-84746891D01*
X80698062Y-84694214D01*
X80669362Y-84683809D01*
X80643080Y-84670418D01*
X80621531Y-84659438D01*
X80617861Y-84657490D01*
X80617857Y-84657488D01*
X80450802Y-84565159D01*
X80443271Y-84560640D01*
X80369320Y-84512616D01*
X80365104Y-84509753D01*
X80162028Y-84365663D01*
X80155749Y-84360900D01*
X80130887Y-84340768D01*
X80100087Y-84315826D01*
X80095510Y-84311932D01*
X79912873Y-84148717D01*
X79907819Y-84143939D01*
X79856060Y-84092180D01*
X79851282Y-84087126D01*
X79688076Y-83904499D01*
X79684169Y-83899907D01*
X79639091Y-83844240D01*
X79634335Y-83837970D01*
X79490243Y-83634892D01*
X79487405Y-83630712D01*
X79439361Y-83556732D01*
X79434835Y-83549187D01*
X79343165Y-83383322D01*
X79342482Y-83382087D01*
X79340557Y-83378461D01*
X79316183Y-83330624D01*
X79305783Y-83301937D01*
X79253109Y-83071149D01*
X79250000Y-83043558D01*
X79250000Y-81893713D01*
X80649500Y-81893713D01*
X80649500Y-82106286D01*
X80682324Y-82313533D01*
X80682754Y-82316243D01*
X80732721Y-82470026D01*
X80748444Y-82518414D01*
X80844951Y-82707820D01*
X80969890Y-82879786D01*
X81120213Y-83030109D01*
X81292179Y-83155048D01*
X81292181Y-83155049D01*
X81292184Y-83155051D01*
X81481588Y-83251557D01*
X81683757Y-83317246D01*
X81893713Y-83350500D01*
X81893714Y-83350500D01*
X82106286Y-83350500D01*
X82106287Y-83350500D01*
X82316243Y-83317246D01*
X82518412Y-83251557D01*
X82707816Y-83155051D01*
X82778696Y-83103554D01*
X82879786Y-83030109D01*
X82879788Y-83030106D01*
X82879792Y-83030104D01*
X83030104Y-82879792D01*
X83030106Y-82879788D01*
X83030109Y-82879786D01*
X83155048Y-82707820D01*
X83155047Y-82707820D01*
X83155051Y-82707816D01*
X83251557Y-82518412D01*
X83317246Y-82316243D01*
X83350500Y-82106287D01*
X83350500Y-81893713D01*
X83347132Y-81872447D01*
X83346895Y-81870951D01*
X83344389Y-81855131D01*
X88229500Y-81855131D01*
X88229500Y-83644856D01*
X88229502Y-83644882D01*
X88232413Y-83669987D01*
X88232415Y-83669991D01*
X88277793Y-83772764D01*
X88277794Y-83772765D01*
X88357235Y-83852206D01*
X88460009Y-83897585D01*
X88485135Y-83900500D01*
X90274864Y-83900499D01*
X90274879Y-83900497D01*
X90274882Y-83900497D01*
X90299987Y-83897586D01*
X90299988Y-83897585D01*
X90299991Y-83897585D01*
X90402765Y-83852206D01*
X90482206Y-83772765D01*
X90527585Y-83669991D01*
X90530500Y-83644865D01*
X90530499Y-82907125D01*
X90550183Y-82840089D01*
X90602987Y-82794334D01*
X90672146Y-82784390D01*
X90735702Y-82813415D01*
X90773476Y-82872193D01*
X90776972Y-82887729D01*
X90797829Y-83019410D01*
X90853787Y-83191636D01*
X90853788Y-83191639D01*
X90909664Y-83301300D01*
X90934733Y-83350500D01*
X90936006Y-83352997D01*
X91042441Y-83499494D01*
X91042445Y-83499499D01*
X91170500Y-83627554D01*
X91170505Y-83627558D01*
X91294565Y-83717692D01*
X91317006Y-83733996D01*
X91393094Y-83772765D01*
X91478360Y-83816211D01*
X91478363Y-83816212D01*
X91545329Y-83837970D01*
X91650591Y-83872171D01*
X91733429Y-83885291D01*
X91829449Y-83900500D01*
X91829454Y-83900500D01*
X92010551Y-83900500D01*
X92097259Y-83886765D01*
X92189409Y-83872171D01*
X92361639Y-83816211D01*
X92522994Y-83733996D01*
X92669501Y-83627553D01*
X92797553Y-83499501D01*
X92903996Y-83352994D01*
X92986211Y-83191639D01*
X93042171Y-83019409D01*
X93056824Y-82926896D01*
X93067527Y-82859321D01*
X93097456Y-82796186D01*
X93156768Y-82759255D01*
X93226630Y-82760253D01*
X93284863Y-82798863D01*
X93312473Y-82859321D01*
X93337829Y-83019410D01*
X93393787Y-83191636D01*
X93393788Y-83191639D01*
X93449664Y-83301300D01*
X93474733Y-83350500D01*
X93476006Y-83352997D01*
X93582441Y-83499494D01*
X93582445Y-83499499D01*
X93710500Y-83627554D01*
X93710505Y-83627558D01*
X93834565Y-83717692D01*
X93857006Y-83733996D01*
X93933094Y-83772765D01*
X94018360Y-83816211D01*
X94018363Y-83816212D01*
X94085329Y-83837970D01*
X94190591Y-83872171D01*
X94273429Y-83885291D01*
X94369449Y-83900500D01*
X94369454Y-83900500D01*
X94550551Y-83900500D01*
X94637259Y-83886765D01*
X94729409Y-83872171D01*
X94901639Y-83816211D01*
X95062994Y-83733996D01*
X95185669Y-83644868D01*
X95209495Y-83627558D01*
X95209497Y-83627555D01*
X95209501Y-83627553D01*
X95337553Y-83499501D01*
X95443996Y-83352994D01*
X95511090Y-83221314D01*
X95559065Y-83170519D01*
X95626886Y-83153724D01*
X95693021Y-83176262D01*
X95736472Y-83230977D01*
X95739506Y-83239292D01*
X95748904Y-83268217D01*
X95845375Y-83457550D01*
X95884728Y-83511716D01*
X96517037Y-82879408D01*
X96534075Y-82942993D01*
X96599901Y-83057007D01*
X96692993Y-83150099D01*
X96807007Y-83215925D01*
X96870590Y-83232962D01*
X96238282Y-83865269D01*
X96238282Y-83865270D01*
X96292449Y-83904624D01*
X96481782Y-84001095D01*
X96683870Y-84066757D01*
X96893754Y-84100000D01*
X97106246Y-84100000D01*
X97316127Y-84066757D01*
X97316130Y-84066757D01*
X97518217Y-84001095D01*
X97707554Y-83904622D01*
X97761716Y-83865270D01*
X97761717Y-83865270D01*
X97129408Y-83232962D01*
X97192993Y-83215925D01*
X97307007Y-83150099D01*
X97400099Y-83057007D01*
X97465925Y-82942993D01*
X97482962Y-82879409D01*
X98115270Y-83511717D01*
X98115270Y-83511716D01*
X98154622Y-83457554D01*
X98251095Y-83268217D01*
X98316757Y-83066130D01*
X98316757Y-83066127D01*
X98350000Y-82856246D01*
X98350000Y-82643753D01*
X98316757Y-82433872D01*
X98316757Y-82433869D01*
X98251095Y-82231782D01*
X98154623Y-82042447D01*
X98154621Y-82042443D01*
X98115271Y-81988282D01*
X98115269Y-81988282D01*
X97482962Y-82620590D01*
X97465925Y-82557007D01*
X97400099Y-82442993D01*
X97307007Y-82349901D01*
X97192993Y-82284075D01*
X97129409Y-82267037D01*
X97502732Y-81893713D01*
X116149500Y-81893713D01*
X116149500Y-82106286D01*
X116182324Y-82313533D01*
X116182754Y-82316243D01*
X116232721Y-82470026D01*
X116248444Y-82518414D01*
X116344951Y-82707820D01*
X116469890Y-82879786D01*
X116620213Y-83030109D01*
X116792179Y-83155048D01*
X116792181Y-83155049D01*
X116792184Y-83155051D01*
X116981588Y-83251557D01*
X117183757Y-83317246D01*
X117393713Y-83350500D01*
X117393714Y-83350500D01*
X117606286Y-83350500D01*
X117606287Y-83350500D01*
X117816243Y-83317246D01*
X118018412Y-83251557D01*
X118207816Y-83155051D01*
X118278696Y-83103554D01*
X118379786Y-83030109D01*
X118379788Y-83030106D01*
X118379792Y-83030104D01*
X118530104Y-82879792D01*
X118530106Y-82879788D01*
X118530109Y-82879786D01*
X118655048Y-82707820D01*
X118655047Y-82707820D01*
X118655051Y-82707816D01*
X118751557Y-82518412D01*
X118817246Y-82316243D01*
X118850500Y-82106287D01*
X118850500Y-81893713D01*
X118817246Y-81683757D01*
X118751557Y-81481588D01*
X118655051Y-81292184D01*
X118655049Y-81292181D01*
X118655048Y-81292179D01*
X118530109Y-81120213D01*
X118379786Y-80969890D01*
X118207820Y-80844951D01*
X118018414Y-80748444D01*
X118018413Y-80748443D01*
X118018412Y-80748443D01*
X117816243Y-80682754D01*
X117816241Y-80682753D01*
X117816240Y-80682753D01*
X117654957Y-80657208D01*
X117606287Y-80649500D01*
X117393713Y-80649500D01*
X117345042Y-80657208D01*
X117183760Y-80682753D01*
X116981585Y-80748444D01*
X116792179Y-80844951D01*
X116620213Y-80969890D01*
X116469890Y-81120213D01*
X116344951Y-81292179D01*
X116248444Y-81481585D01*
X116182753Y-81683760D01*
X116149500Y-81893713D01*
X97502732Y-81893713D01*
X97761716Y-81634728D01*
X97707550Y-81595375D01*
X97518217Y-81498904D01*
X97316129Y-81433242D01*
X97106246Y-81400000D01*
X96893754Y-81400000D01*
X96683872Y-81433242D01*
X96683869Y-81433242D01*
X96481782Y-81498904D01*
X96292439Y-81595380D01*
X96238282Y-81634727D01*
X96238282Y-81634728D01*
X96870591Y-82267037D01*
X96807007Y-82284075D01*
X96692993Y-82349901D01*
X96599901Y-82442993D01*
X96534075Y-82557007D01*
X96517037Y-82620591D01*
X95884728Y-81988282D01*
X95884727Y-81988282D01*
X95845380Y-82042439D01*
X95748905Y-82231781D01*
X95739506Y-82260708D01*
X95700068Y-82318383D01*
X95635709Y-82345581D01*
X95566862Y-82333666D01*
X95515387Y-82286421D01*
X95511090Y-82278684D01*
X95487191Y-82231781D01*
X95443996Y-82147006D01*
X95368024Y-82042439D01*
X95337558Y-82000505D01*
X95337554Y-82000500D01*
X95209499Y-81872445D01*
X95209494Y-81872441D01*
X95085432Y-81782305D01*
X95062996Y-81766005D01*
X94901639Y-81683788D01*
X94901636Y-81683787D01*
X94729410Y-81627829D01*
X94550551Y-81599500D01*
X94550546Y-81599500D01*
X94369454Y-81599500D01*
X94369449Y-81599500D01*
X94190589Y-81627829D01*
X94018363Y-81683787D01*
X94018360Y-81683788D01*
X93857002Y-81766006D01*
X93710505Y-81872441D01*
X93710500Y-81872445D01*
X93582445Y-82000500D01*
X93582441Y-82000505D01*
X93476006Y-82147002D01*
X93393788Y-82308360D01*
X93393787Y-82308363D01*
X93337829Y-82480589D01*
X93312473Y-82640678D01*
X93282544Y-82703813D01*
X93223232Y-82740744D01*
X93153369Y-82739746D01*
X93095137Y-82701136D01*
X93067527Y-82640678D01*
X93053740Y-82553639D01*
X93042171Y-82480591D01*
X92999708Y-82349901D01*
X92986212Y-82308363D01*
X92986211Y-82308360D01*
X92947191Y-82231781D01*
X92903996Y-82147006D01*
X92828024Y-82042439D01*
X92797558Y-82000505D01*
X92797554Y-82000500D01*
X92669499Y-81872445D01*
X92669494Y-81872441D01*
X92522997Y-81766006D01*
X92522996Y-81766005D01*
X92522994Y-81766004D01*
X92446906Y-81727235D01*
X92361639Y-81683788D01*
X92361636Y-81683787D01*
X92189410Y-81627829D01*
X92010551Y-81599500D01*
X92010546Y-81599500D01*
X91829454Y-81599500D01*
X91829449Y-81599500D01*
X91650589Y-81627829D01*
X91478363Y-81683787D01*
X91478360Y-81683788D01*
X91317002Y-81766006D01*
X91170505Y-81872441D01*
X91170500Y-81872445D01*
X91042445Y-82000500D01*
X91042441Y-82000505D01*
X90936006Y-82147002D01*
X90853788Y-82308360D01*
X90853787Y-82308363D01*
X90797829Y-82480589D01*
X90776972Y-82612271D01*
X90747042Y-82675405D01*
X90687731Y-82712336D01*
X90617868Y-82711338D01*
X90559636Y-82672728D01*
X90531522Y-82608764D01*
X90530499Y-82592872D01*
X90530499Y-81855143D01*
X90530499Y-81855136D01*
X90530497Y-81855117D01*
X90527586Y-81830012D01*
X90527585Y-81830010D01*
X90527585Y-81830009D01*
X90482206Y-81727235D01*
X90402765Y-81647794D01*
X90402763Y-81647793D01*
X90299992Y-81602415D01*
X90274865Y-81599500D01*
X88485143Y-81599500D01*
X88485117Y-81599502D01*
X88460012Y-81602413D01*
X88460008Y-81602415D01*
X88357235Y-81647793D01*
X88277794Y-81727234D01*
X88232415Y-81830006D01*
X88232415Y-81830008D01*
X88229500Y-81855131D01*
X83344389Y-81855131D01*
X83339006Y-81821143D01*
X83317246Y-81683757D01*
X83251557Y-81481588D01*
X83155051Y-81292184D01*
X83155049Y-81292181D01*
X83155048Y-81292179D01*
X83030109Y-81120213D01*
X82879786Y-80969890D01*
X82707820Y-80844951D01*
X82518414Y-80748444D01*
X82518413Y-80748443D01*
X82518412Y-80748443D01*
X82316243Y-80682754D01*
X82316241Y-80682753D01*
X82316240Y-80682753D01*
X82154957Y-80657208D01*
X82106287Y-80649500D01*
X81893713Y-80649500D01*
X81845042Y-80657208D01*
X81683760Y-80682753D01*
X81481585Y-80748444D01*
X81292179Y-80844951D01*
X81120213Y-80969890D01*
X80969890Y-81120213D01*
X80844951Y-81292179D01*
X80748444Y-81481585D01*
X80682753Y-81683760D01*
X80649500Y-81893713D01*
X79250000Y-81893713D01*
X79250000Y-80534071D01*
X90439499Y-80534071D01*
X90464497Y-80659738D01*
X90464499Y-80659744D01*
X90513533Y-80778124D01*
X90513538Y-80778133D01*
X90584723Y-80884668D01*
X90584726Y-80884672D01*
X90675327Y-80975273D01*
X90675331Y-80975276D01*
X90781866Y-81046461D01*
X90781872Y-81046464D01*
X90781873Y-81046465D01*
X90900256Y-81095501D01*
X90900260Y-81095501D01*
X90900261Y-81095502D01*
X91025928Y-81120500D01*
X91025931Y-81120500D01*
X91154071Y-81120500D01*
X91238615Y-81103682D01*
X91279744Y-81095501D01*
X91398127Y-81046465D01*
X91398127Y-81046464D01*
X91398129Y-81046464D01*
X91465576Y-81001398D01*
X91532253Y-80980520D01*
X91534466Y-80980500D01*
X92480400Y-80980500D01*
X92547439Y-81000185D01*
X92549251Y-81001371D01*
X92590031Y-81028620D01*
X92590037Y-81028622D01*
X92590038Y-81028623D01*
X92633113Y-81046465D01*
X92712964Y-81079540D01*
X92712968Y-81079540D01*
X92712969Y-81079541D01*
X92843466Y-81105500D01*
X92843469Y-81105500D01*
X92976533Y-81105500D01*
X93064325Y-81088035D01*
X93107036Y-81079540D01*
X93229969Y-81028620D01*
X93340606Y-80954695D01*
X93434695Y-80860606D01*
X93508620Y-80749969D01*
X93559540Y-80627036D01*
X93585500Y-80496531D01*
X93585500Y-80363469D01*
X93585500Y-80363466D01*
X93559541Y-80232969D01*
X93559540Y-80232968D01*
X93559540Y-80232964D01*
X93530094Y-80161875D01*
X93508623Y-80110038D01*
X93508622Y-80110037D01*
X93508620Y-80110031D01*
X93434695Y-79999394D01*
X93434692Y-79999390D01*
X93340609Y-79905307D01*
X93340601Y-79905301D01*
X93229979Y-79831386D01*
X93229972Y-79831382D01*
X93229969Y-79831380D01*
X93229965Y-79831378D01*
X93229961Y-79831376D01*
X93107040Y-79780461D01*
X93107030Y-79780458D01*
X92976533Y-79754500D01*
X92976531Y-79754500D01*
X92843469Y-79754500D01*
X92843467Y-79754500D01*
X92712969Y-79780458D01*
X92712959Y-79780461D01*
X92590038Y-79831376D01*
X92590026Y-79831383D01*
X92590022Y-79831386D01*
X92549289Y-79858602D01*
X92482614Y-79879480D01*
X92480400Y-79879500D01*
X91388909Y-79879500D01*
X91341456Y-79870061D01*
X91279744Y-79844499D01*
X91279738Y-79844497D01*
X91154071Y-79819500D01*
X91154069Y-79819500D01*
X91025931Y-79819500D01*
X91025929Y-79819500D01*
X90900261Y-79844497D01*
X90900255Y-79844499D01*
X90781875Y-79893533D01*
X90781866Y-79893538D01*
X90675331Y-79964723D01*
X90675327Y-79964726D01*
X90584726Y-80055327D01*
X90584723Y-80055331D01*
X90513538Y-80161866D01*
X90513533Y-80161875D01*
X90464499Y-80280255D01*
X90464497Y-80280261D01*
X90439500Y-80405928D01*
X90439500Y-80405931D01*
X90439500Y-80534069D01*
X90439500Y-80534071D01*
X90439499Y-80534071D01*
X79250000Y-80534071D01*
X79250000Y-77576533D01*
X96424499Y-77576533D01*
X96450458Y-77707030D01*
X96450461Y-77707040D01*
X96501376Y-77829961D01*
X96501386Y-77829979D01*
X96575301Y-77940601D01*
X96575307Y-77940609D01*
X96669390Y-78034692D01*
X96669398Y-78034698D01*
X96780020Y-78108613D01*
X96780023Y-78108614D01*
X96780031Y-78108620D01*
X96780037Y-78108622D01*
X96780038Y-78108623D01*
X96876608Y-78148623D01*
X96902964Y-78159540D01*
X96902968Y-78159540D01*
X96902969Y-78159541D01*
X97033466Y-78185500D01*
X97033469Y-78185500D01*
X97166533Y-78185500D01*
X97254325Y-78168035D01*
X97297036Y-78159540D01*
X97419969Y-78108620D01*
X97460710Y-78081397D01*
X97527386Y-78060520D01*
X97529600Y-78060500D01*
X98125534Y-78060500D01*
X98192573Y-78080185D01*
X98194424Y-78081397D01*
X98231820Y-78106383D01*
X98295031Y-78148620D01*
X98295037Y-78148622D01*
X98295038Y-78148623D01*
X98321394Y-78159540D01*
X98417964Y-78199540D01*
X98417968Y-78199540D01*
X98417969Y-78199541D01*
X98548466Y-78225500D01*
X98548469Y-78225500D01*
X98681533Y-78225500D01*
X98769325Y-78208035D01*
X98812036Y-78199540D01*
X98934969Y-78148620D01*
X99045606Y-78074695D01*
X99139695Y-77980606D01*
X99213620Y-77869969D01*
X99264540Y-77747036D01*
X99290500Y-77616531D01*
X99290500Y-77483469D01*
X99290500Y-77483466D01*
X99264541Y-77352969D01*
X99264540Y-77352968D01*
X99264540Y-77352964D01*
X99213620Y-77230031D01*
X99139695Y-77119394D01*
X99139692Y-77119390D01*
X99045609Y-77025307D01*
X99045601Y-77025301D01*
X98934979Y-76951386D01*
X98934972Y-76951382D01*
X98934969Y-76951380D01*
X98934965Y-76951378D01*
X98934961Y-76951376D01*
X98812040Y-76900461D01*
X98812030Y-76900458D01*
X98681533Y-76874500D01*
X98681531Y-76874500D01*
X98548469Y-76874500D01*
X98548467Y-76874500D01*
X98417969Y-76900458D01*
X98417959Y-76900461D01*
X98298214Y-76950061D01*
X98250762Y-76959500D01*
X97529600Y-76959500D01*
X97462561Y-76939815D01*
X97460748Y-76938628D01*
X97419969Y-76911380D01*
X97419965Y-76911378D01*
X97419961Y-76911376D01*
X97297040Y-76860461D01*
X97297030Y-76860458D01*
X97166533Y-76834500D01*
X97166531Y-76834500D01*
X97033469Y-76834500D01*
X97033467Y-76834500D01*
X96902969Y-76860458D01*
X96902959Y-76860461D01*
X96780038Y-76911376D01*
X96780020Y-76911386D01*
X96669398Y-76985301D01*
X96669390Y-76985307D01*
X96575307Y-77079390D01*
X96575301Y-77079398D01*
X96501386Y-77190020D01*
X96501376Y-77190038D01*
X96450461Y-77312959D01*
X96450458Y-77312969D01*
X96424500Y-77443466D01*
X96424500Y-77443469D01*
X96424500Y-77576531D01*
X96424500Y-77576533D01*
X96424499Y-77576533D01*
X79250000Y-77576533D01*
X79250000Y-64068995D01*
X80469499Y-64068995D01*
X80496418Y-64204322D01*
X80496421Y-64204332D01*
X80549221Y-64331804D01*
X80549228Y-64331817D01*
X80625885Y-64446541D01*
X80625888Y-64446545D01*
X80723454Y-64544111D01*
X80723458Y-64544114D01*
X80838182Y-64620771D01*
X80838195Y-64620778D01*
X80953934Y-64668718D01*
X80965672Y-64673580D01*
X80965676Y-64673580D01*
X80965677Y-64673581D01*
X81101004Y-64700500D01*
X81101007Y-64700500D01*
X81238995Y-64700500D01*
X81330041Y-64682389D01*
X81374328Y-64673580D01*
X81501811Y-64620775D01*
X81616542Y-64544114D01*
X81714114Y-64446542D01*
X81790775Y-64331811D01*
X81843580Y-64204328D01*
X81870500Y-64068993D01*
X81870500Y-63931007D01*
X81870499Y-63931004D01*
X81867115Y-63913992D01*
X113339500Y-63913992D01*
X113339500Y-64116007D01*
X113378907Y-64314119D01*
X113378909Y-64314127D01*
X113456212Y-64500752D01*
X113456217Y-64500762D01*
X113568441Y-64668718D01*
X113711281Y-64811558D01*
X113879237Y-64923782D01*
X113879241Y-64923784D01*
X113879244Y-64923786D01*
X114065873Y-65001091D01*
X114263992Y-65040499D01*
X114263996Y-65040500D01*
X114263997Y-65040500D01*
X114865541Y-65040500D01*
X114932580Y-65060185D01*
X114978335Y-65112989D01*
X114986980Y-65164915D01*
X114989500Y-65164915D01*
X114989500Y-65171007D01*
X114989500Y-65308993D01*
X114989500Y-65308995D01*
X114989499Y-65308995D01*
X115016418Y-65444322D01*
X115016421Y-65444332D01*
X115069221Y-65571804D01*
X115069228Y-65571817D01*
X115145885Y-65686541D01*
X115145888Y-65686545D01*
X115243454Y-65784111D01*
X115243458Y-65784114D01*
X115358182Y-65860771D01*
X115358195Y-65860778D01*
X115482804Y-65912392D01*
X115485672Y-65913580D01*
X115485676Y-65913580D01*
X115485677Y-65913581D01*
X115621004Y-65940500D01*
X115621007Y-65940500D01*
X115758995Y-65940500D01*
X115900302Y-65912392D01*
X115900812Y-65914959D01*
X115959281Y-65914393D01*
X116018422Y-65951597D01*
X116048061Y-66014868D01*
X116049500Y-66033703D01*
X116049500Y-69446296D01*
X116029815Y-69513335D01*
X115977011Y-69559090D01*
X115907853Y-69569034D01*
X115900349Y-69567367D01*
X115900302Y-69567608D01*
X115758995Y-69539500D01*
X115758993Y-69539500D01*
X115621007Y-69539500D01*
X115621005Y-69539500D01*
X115485677Y-69566418D01*
X115485667Y-69566421D01*
X115358195Y-69619221D01*
X115358182Y-69619228D01*
X115243458Y-69695885D01*
X115243454Y-69695888D01*
X115145888Y-69793454D01*
X115145885Y-69793458D01*
X115069228Y-69908182D01*
X115069221Y-69908195D01*
X115016421Y-70035667D01*
X115016418Y-70035677D01*
X114989500Y-70171004D01*
X114989500Y-70315085D01*
X114986710Y-70315085D01*
X114975942Y-70371959D01*
X114927892Y-70422683D01*
X114865541Y-70439500D01*
X114263992Y-70439500D01*
X114065880Y-70478907D01*
X114065872Y-70478909D01*
X113879247Y-70556212D01*
X113879237Y-70556217D01*
X113711281Y-70668441D01*
X113568441Y-70811281D01*
X113456217Y-70979237D01*
X113456212Y-70979247D01*
X113378909Y-71165872D01*
X113378907Y-71165880D01*
X113339500Y-71363992D01*
X113339500Y-71566007D01*
X113378907Y-71764119D01*
X113378909Y-71764127D01*
X113456212Y-71950752D01*
X113456217Y-71950762D01*
X113568441Y-72118718D01*
X113711281Y-72261558D01*
X113879237Y-72373782D01*
X113879241Y-72373784D01*
X113879244Y-72373786D01*
X114065873Y-72451091D01*
X114263992Y-72490499D01*
X114263996Y-72490500D01*
X114263997Y-72490500D01*
X115016004Y-72490500D01*
X115016005Y-72490499D01*
X115214127Y-72451091D01*
X115400756Y-72373786D01*
X115568718Y-72261558D01*
X115711558Y-72118718D01*
X115761909Y-72043362D01*
X115822398Y-71952834D01*
X115876010Y-71908029D01*
X115945335Y-71899322D01*
X116008362Y-71929476D01*
X116045082Y-71988919D01*
X116049500Y-72021725D01*
X116049500Y-76710432D01*
X116029815Y-76777471D01*
X116028603Y-76779322D01*
X116013534Y-76801874D01*
X115964499Y-76920255D01*
X115964497Y-76920261D01*
X115939500Y-77045928D01*
X115939500Y-77045931D01*
X115939500Y-77174069D01*
X115939500Y-77174071D01*
X115939499Y-77174071D01*
X115964497Y-77299738D01*
X115964499Y-77299744D01*
X116013533Y-77418124D01*
X116013538Y-77418133D01*
X116084723Y-77524668D01*
X116084726Y-77524672D01*
X116175327Y-77615273D01*
X116175331Y-77615276D01*
X116281866Y-77686461D01*
X116281872Y-77686464D01*
X116281873Y-77686465D01*
X116400256Y-77735501D01*
X116400260Y-77735501D01*
X116400261Y-77735502D01*
X116525928Y-77760500D01*
X116525931Y-77760500D01*
X116654071Y-77760500D01*
X116738615Y-77743682D01*
X116779744Y-77735501D01*
X116898127Y-77686465D01*
X117004669Y-77615276D01*
X117095276Y-77524669D01*
X117166465Y-77418127D01*
X117215501Y-77299744D01*
X117229370Y-77230020D01*
X117240500Y-77174071D01*
X117240500Y-77045928D01*
X117215502Y-76920261D01*
X117215501Y-76920260D01*
X117215501Y-76920256D01*
X117166465Y-76801873D01*
X117166463Y-76801870D01*
X117166462Y-76801867D01*
X117165140Y-76799393D01*
X117164684Y-76797575D01*
X117164134Y-76796246D01*
X117164331Y-76796164D01*
X117150500Y-76740944D01*
X117150500Y-72156156D01*
X117170185Y-72089117D01*
X117222989Y-72043362D01*
X117292147Y-72033418D01*
X117355703Y-72062443D01*
X117377602Y-72087265D01*
X117434954Y-72173098D01*
X117434957Y-72173102D01*
X117556897Y-72295042D01*
X117556901Y-72295045D01*
X117700288Y-72390854D01*
X117700301Y-72390861D01*
X117845708Y-72451090D01*
X117859626Y-72456855D01*
X118028766Y-72490499D01*
X118028769Y-72490500D01*
X118028771Y-72490500D01*
X118851231Y-72490500D01*
X118851232Y-72490499D01*
X119020374Y-72456855D01*
X119179705Y-72390858D01*
X119323099Y-72295045D01*
X119445045Y-72173099D01*
X119540858Y-72029705D01*
X119606855Y-71870374D01*
X119640500Y-71701229D01*
X119640500Y-71528771D01*
X119640500Y-71528768D01*
X119640499Y-71528766D01*
X119606856Y-71359633D01*
X119606855Y-71359626D01*
X119606853Y-71359621D01*
X119540861Y-71200301D01*
X119540854Y-71200288D01*
X119445045Y-71056901D01*
X119445042Y-71056897D01*
X119323102Y-70934957D01*
X119323098Y-70934954D01*
X119179711Y-70839145D01*
X119179698Y-70839138D01*
X119020378Y-70773146D01*
X119020366Y-70773143D01*
X118851232Y-70739500D01*
X118851229Y-70739500D01*
X118028771Y-70739500D01*
X118028768Y-70739500D01*
X117859633Y-70773143D01*
X117859621Y-70773146D01*
X117700301Y-70839138D01*
X117700288Y-70839145D01*
X117556901Y-70934954D01*
X117556897Y-70934957D01*
X117434957Y-71056897D01*
X117434954Y-71056901D01*
X117377602Y-71142734D01*
X117323989Y-71187539D01*
X117254664Y-71196246D01*
X117191637Y-71166091D01*
X117154918Y-71106648D01*
X117150500Y-71073843D01*
X117150500Y-64406156D01*
X117170185Y-64339117D01*
X117222989Y-64293362D01*
X117292147Y-64283418D01*
X117355703Y-64312443D01*
X117377602Y-64337265D01*
X117434954Y-64423098D01*
X117434957Y-64423102D01*
X117556897Y-64545042D01*
X117556901Y-64545045D01*
X117700288Y-64640854D01*
X117700301Y-64640861D01*
X117859621Y-64706853D01*
X117859626Y-64706855D01*
X118028766Y-64740499D01*
X118028769Y-64740500D01*
X118028771Y-64740500D01*
X118851231Y-64740500D01*
X118851232Y-64740499D01*
X119020374Y-64706855D01*
X119179705Y-64640858D01*
X119323099Y-64545045D01*
X119445045Y-64423099D01*
X119540858Y-64279705D01*
X119606855Y-64120374D01*
X119640500Y-63951229D01*
X119640500Y-63778771D01*
X119640500Y-63778768D01*
X119640499Y-63778766D01*
X119627989Y-63715873D01*
X119606855Y-63609626D01*
X119590884Y-63571068D01*
X119540861Y-63450301D01*
X119540854Y-63450288D01*
X119445045Y-63306901D01*
X119445042Y-63306897D01*
X119323102Y-63184957D01*
X119323098Y-63184954D01*
X119179711Y-63089145D01*
X119179698Y-63089138D01*
X119020378Y-63023146D01*
X119020366Y-63023143D01*
X118851232Y-62989500D01*
X118851229Y-62989500D01*
X118028771Y-62989500D01*
X118028768Y-62989500D01*
X117859633Y-63023143D01*
X117859621Y-63023146D01*
X117700301Y-63089138D01*
X117700288Y-63089145D01*
X117556901Y-63184954D01*
X117556897Y-63184957D01*
X117434957Y-63306897D01*
X117434954Y-63306901D01*
X117377602Y-63392734D01*
X117323989Y-63437539D01*
X117254664Y-63446246D01*
X117191637Y-63416091D01*
X117154918Y-63356648D01*
X117150500Y-63323843D01*
X117150500Y-62404600D01*
X117170185Y-62337561D01*
X117171359Y-62335768D01*
X117176465Y-62328127D01*
X117225501Y-62209744D01*
X117250500Y-62084069D01*
X117250500Y-61955931D01*
X117250500Y-61955928D01*
X117225502Y-61830261D01*
X117225501Y-61830260D01*
X117225501Y-61830256D01*
X117176465Y-61711873D01*
X117176464Y-61711872D01*
X117176461Y-61711866D01*
X117105276Y-61605331D01*
X117105273Y-61605327D01*
X117014672Y-61514726D01*
X117014668Y-61514723D01*
X116908133Y-61443538D01*
X116908124Y-61443533D01*
X116789744Y-61394499D01*
X116789738Y-61394497D01*
X116664071Y-61369500D01*
X116664069Y-61369500D01*
X116535931Y-61369500D01*
X116535929Y-61369500D01*
X116410261Y-61394497D01*
X116410255Y-61394499D01*
X116291875Y-61443533D01*
X116291866Y-61443538D01*
X116185331Y-61514723D01*
X116185327Y-61514726D01*
X116094726Y-61605327D01*
X116094723Y-61605331D01*
X116023538Y-61711866D01*
X116023533Y-61711875D01*
X115974499Y-61830255D01*
X115974497Y-61830261D01*
X115949500Y-61955928D01*
X115949500Y-61955931D01*
X115949500Y-62084069D01*
X115949500Y-62084071D01*
X115949499Y-62084071D01*
X115974497Y-62209738D01*
X115974499Y-62209744D01*
X116023533Y-62328124D01*
X116023534Y-62328126D01*
X116023535Y-62328127D01*
X116028600Y-62335708D01*
X116049480Y-62402383D01*
X116049500Y-62404600D01*
X116049500Y-63458274D01*
X116029815Y-63525313D01*
X115977011Y-63571068D01*
X115907853Y-63581012D01*
X115844297Y-63551987D01*
X115822398Y-63527165D01*
X115711558Y-63361282D01*
X115711555Y-63361278D01*
X115568718Y-63218441D01*
X115400762Y-63106217D01*
X115400752Y-63106212D01*
X115214127Y-63028909D01*
X115214119Y-63028907D01*
X115016007Y-62989500D01*
X115016003Y-62989500D01*
X114263997Y-62989500D01*
X114263992Y-62989500D01*
X114065880Y-63028907D01*
X114065872Y-63028909D01*
X113879247Y-63106212D01*
X113879237Y-63106217D01*
X113711281Y-63218441D01*
X113568441Y-63361281D01*
X113456217Y-63529237D01*
X113456212Y-63529247D01*
X113378909Y-63715872D01*
X113378907Y-63715880D01*
X113339500Y-63913992D01*
X81867115Y-63913992D01*
X81843581Y-63795679D01*
X81843581Y-63795677D01*
X81843580Y-63795672D01*
X81843578Y-63795667D01*
X81790778Y-63668195D01*
X81790771Y-63668182D01*
X81714114Y-63553458D01*
X81714111Y-63553454D01*
X81616545Y-63455888D01*
X81616541Y-63455885D01*
X81501817Y-63379228D01*
X81501804Y-63379221D01*
X81374332Y-63326421D01*
X81374322Y-63326418D01*
X81238995Y-63299500D01*
X81238993Y-63299500D01*
X81101007Y-63299500D01*
X81101005Y-63299500D01*
X80965677Y-63326418D01*
X80965667Y-63326421D01*
X80838195Y-63379221D01*
X80838182Y-63379228D01*
X80723458Y-63455885D01*
X80723454Y-63455888D01*
X80625888Y-63553454D01*
X80625885Y-63553458D01*
X80549228Y-63668182D01*
X80549221Y-63668195D01*
X80496421Y-63795667D01*
X80496418Y-63795677D01*
X80469500Y-63931004D01*
X80469500Y-63931005D01*
X80469500Y-63931007D01*
X80469500Y-64068993D01*
X80469500Y-64068995D01*
X80469499Y-64068995D01*
X79250000Y-64068995D01*
X79250000Y-61068995D01*
X80469499Y-61068995D01*
X80496418Y-61204322D01*
X80496421Y-61204332D01*
X80549221Y-61331804D01*
X80549228Y-61331817D01*
X80625885Y-61446541D01*
X80625888Y-61446545D01*
X80723454Y-61544111D01*
X80723458Y-61544114D01*
X80838182Y-61620771D01*
X80838195Y-61620778D01*
X80965667Y-61673578D01*
X80965672Y-61673580D01*
X80965676Y-61673580D01*
X80965677Y-61673581D01*
X81101004Y-61700500D01*
X81101007Y-61700500D01*
X81238995Y-61700500D01*
X81330041Y-61682389D01*
X81374328Y-61673580D01*
X81501811Y-61620775D01*
X81616542Y-61544114D01*
X81714114Y-61446542D01*
X81790775Y-61331811D01*
X81843580Y-61204328D01*
X81870500Y-61068993D01*
X81870500Y-60931007D01*
X81870500Y-60931004D01*
X81843581Y-60795677D01*
X81843580Y-60795676D01*
X81843580Y-60795672D01*
X81843578Y-60795667D01*
X81790778Y-60668195D01*
X81790771Y-60668182D01*
X81714114Y-60553458D01*
X81714111Y-60553454D01*
X81616545Y-60455888D01*
X81616541Y-60455885D01*
X81501817Y-60379228D01*
X81501804Y-60379221D01*
X81374332Y-60326421D01*
X81374322Y-60326418D01*
X81238995Y-60299500D01*
X81238993Y-60299500D01*
X81101007Y-60299500D01*
X81101005Y-60299500D01*
X80965677Y-60326418D01*
X80965667Y-60326421D01*
X80838195Y-60379221D01*
X80838182Y-60379228D01*
X80723458Y-60455885D01*
X80723454Y-60455888D01*
X80625888Y-60553454D01*
X80625885Y-60553458D01*
X80549228Y-60668182D01*
X80549221Y-60668195D01*
X80496421Y-60795667D01*
X80496418Y-60795677D01*
X80469500Y-60931004D01*
X80469500Y-60931007D01*
X80469500Y-61068993D01*
X80469500Y-61068995D01*
X80469499Y-61068995D01*
X79250000Y-61068995D01*
X79250000Y-54893713D01*
X80649500Y-54893713D01*
X80649500Y-55106286D01*
X80679961Y-55298613D01*
X80682754Y-55316243D01*
X80742816Y-55501095D01*
X80748444Y-55518414D01*
X80844951Y-55707820D01*
X80969890Y-55879786D01*
X81120213Y-56030109D01*
X81292179Y-56155048D01*
X81292181Y-56155049D01*
X81292184Y-56155051D01*
X81481588Y-56251557D01*
X81683757Y-56317246D01*
X81893713Y-56350500D01*
X81893714Y-56350500D01*
X82106286Y-56350500D01*
X82106287Y-56350500D01*
X82316243Y-56317246D01*
X82518412Y-56251557D01*
X82707816Y-56155051D01*
X82729789Y-56139086D01*
X82879786Y-56030109D01*
X82879788Y-56030106D01*
X82879792Y-56030104D01*
X83030104Y-55879792D01*
X83030106Y-55879788D01*
X83030109Y-55879786D01*
X83155048Y-55707820D01*
X83155047Y-55707820D01*
X83155051Y-55707816D01*
X83251557Y-55518412D01*
X83317246Y-55316243D01*
X83350500Y-55106287D01*
X83350500Y-54893713D01*
X83317246Y-54683757D01*
X83251557Y-54481588D01*
X83155051Y-54292184D01*
X83131127Y-54259255D01*
X83096627Y-54211769D01*
X83096624Y-54211766D01*
X83092191Y-54205665D01*
X83047210Y-54143753D01*
X88040000Y-54143753D01*
X88040000Y-54356246D01*
X88073242Y-54566127D01*
X88073242Y-54566130D01*
X88138904Y-54768217D01*
X88235375Y-54957550D01*
X88274728Y-55011716D01*
X88907037Y-54379408D01*
X88924075Y-54442993D01*
X88989901Y-54557007D01*
X89082993Y-54650099D01*
X89197007Y-54715925D01*
X89260590Y-54732962D01*
X88628282Y-55365269D01*
X88628282Y-55365270D01*
X88682449Y-55404624D01*
X88871782Y-55501095D01*
X89073870Y-55566757D01*
X89283754Y-55600000D01*
X89496246Y-55600000D01*
X89706127Y-55566757D01*
X89706130Y-55566757D01*
X89908217Y-55501095D01*
X90097554Y-55404622D01*
X90151716Y-55365270D01*
X90151717Y-55365270D01*
X89519408Y-54732962D01*
X89582993Y-54715925D01*
X89697007Y-54650099D01*
X89790099Y-54557007D01*
X89855925Y-54442993D01*
X89872962Y-54379408D01*
X90505270Y-55011717D01*
X90505270Y-55011716D01*
X90544622Y-54957554D01*
X90641095Y-54768217D01*
X90650492Y-54739295D01*
X90689928Y-54681618D01*
X90754286Y-54654419D01*
X90823133Y-54666331D01*
X90874610Y-54713574D01*
X90878908Y-54721314D01*
X90946004Y-54852995D01*
X91052441Y-54999494D01*
X91052445Y-54999499D01*
X91180500Y-55127554D01*
X91180505Y-55127558D01*
X91308287Y-55220396D01*
X91327006Y-55233996D01*
X91403094Y-55272765D01*
X91488360Y-55316211D01*
X91488363Y-55316212D01*
X91574476Y-55344191D01*
X91660591Y-55372171D01*
X91743429Y-55385291D01*
X91839449Y-55400500D01*
X91839454Y-55400500D01*
X92020551Y-55400500D01*
X92107259Y-55386765D01*
X92199409Y-55372171D01*
X92371639Y-55316211D01*
X92532994Y-55233996D01*
X92679501Y-55127553D01*
X92807553Y-54999501D01*
X92913996Y-54852994D01*
X92996211Y-54691639D01*
X93052171Y-54519409D01*
X93073027Y-54387729D01*
X93077527Y-54359321D01*
X93107456Y-54296186D01*
X93166768Y-54259255D01*
X93236630Y-54260253D01*
X93294863Y-54298863D01*
X93322473Y-54359321D01*
X93347829Y-54519410D01*
X93403787Y-54691636D01*
X93403788Y-54691639D01*
X93459664Y-54801300D01*
X93480784Y-54842750D01*
X93486006Y-54852997D01*
X93592441Y-54999494D01*
X93592445Y-54999499D01*
X93720500Y-55127554D01*
X93720505Y-55127558D01*
X93848287Y-55220396D01*
X93867006Y-55233996D01*
X93943094Y-55272765D01*
X94028360Y-55316211D01*
X94028363Y-55316212D01*
X94114476Y-55344191D01*
X94200591Y-55372171D01*
X94283429Y-55385291D01*
X94379449Y-55400500D01*
X94379454Y-55400500D01*
X94560551Y-55400500D01*
X94647259Y-55386765D01*
X94739409Y-55372171D01*
X94911639Y-55316211D01*
X95072994Y-55233996D01*
X95219501Y-55127553D01*
X95347553Y-54999501D01*
X95453996Y-54852994D01*
X95536211Y-54691639D01*
X95592171Y-54519409D01*
X95613027Y-54387729D01*
X95642956Y-54324595D01*
X95702267Y-54287663D01*
X95772130Y-54288661D01*
X95830363Y-54327271D01*
X95858477Y-54391234D01*
X95859500Y-54407127D01*
X95859500Y-55144856D01*
X95859502Y-55144882D01*
X95862413Y-55169987D01*
X95862415Y-55169991D01*
X95907793Y-55272764D01*
X95907794Y-55272765D01*
X95987235Y-55352206D01*
X96090009Y-55397585D01*
X96115135Y-55400500D01*
X97904864Y-55400499D01*
X97904879Y-55400497D01*
X97904882Y-55400497D01*
X97929987Y-55397586D01*
X97929988Y-55397585D01*
X97929991Y-55397585D01*
X98032765Y-55352206D01*
X98112206Y-55272765D01*
X98157585Y-55169991D01*
X98160500Y-55144865D01*
X98160499Y-54143753D01*
X101840000Y-54143753D01*
X101840000Y-54356246D01*
X101873242Y-54566127D01*
X101873242Y-54566130D01*
X101938904Y-54768217D01*
X102035375Y-54957550D01*
X102074728Y-55011716D01*
X102707037Y-54379408D01*
X102724075Y-54442993D01*
X102789901Y-54557007D01*
X102882993Y-54650099D01*
X102997007Y-54715925D01*
X103060590Y-54732962D01*
X102428282Y-55365269D01*
X102428282Y-55365270D01*
X102482449Y-55404624D01*
X102671782Y-55501095D01*
X102873870Y-55566757D01*
X103083754Y-55600000D01*
X103296246Y-55600000D01*
X103506127Y-55566757D01*
X103506130Y-55566757D01*
X103708217Y-55501095D01*
X103897554Y-55404622D01*
X103951716Y-55365270D01*
X103951717Y-55365270D01*
X103319408Y-54732962D01*
X103382993Y-54715925D01*
X103497007Y-54650099D01*
X103590099Y-54557007D01*
X103655925Y-54442993D01*
X103672962Y-54379409D01*
X104305270Y-55011717D01*
X104305270Y-55011716D01*
X104344622Y-54957554D01*
X104441095Y-54768217D01*
X104450492Y-54739295D01*
X104489928Y-54681618D01*
X104554286Y-54654419D01*
X104623133Y-54666331D01*
X104674610Y-54713574D01*
X104678908Y-54721314D01*
X104746004Y-54852995D01*
X104852441Y-54999494D01*
X104852445Y-54999499D01*
X104980500Y-55127554D01*
X104980505Y-55127558D01*
X105108287Y-55220396D01*
X105127006Y-55233996D01*
X105203094Y-55272765D01*
X105288360Y-55316211D01*
X105288363Y-55316212D01*
X105374476Y-55344191D01*
X105460591Y-55372171D01*
X105543429Y-55385291D01*
X105639449Y-55400500D01*
X105639454Y-55400500D01*
X105820551Y-55400500D01*
X105907259Y-55386765D01*
X105999409Y-55372171D01*
X106171639Y-55316211D01*
X106332994Y-55233996D01*
X106479501Y-55127553D01*
X106607553Y-54999501D01*
X106713996Y-54852994D01*
X106796211Y-54691639D01*
X106852171Y-54519409D01*
X106873027Y-54387729D01*
X106877527Y-54359321D01*
X106907456Y-54296186D01*
X106966768Y-54259255D01*
X107036630Y-54260253D01*
X107094863Y-54298863D01*
X107122473Y-54359321D01*
X107147829Y-54519410D01*
X107203787Y-54691636D01*
X107203788Y-54691639D01*
X107259664Y-54801300D01*
X107280784Y-54842750D01*
X107286006Y-54852997D01*
X107392441Y-54999494D01*
X107392445Y-54999499D01*
X107520500Y-55127554D01*
X107520505Y-55127558D01*
X107648287Y-55220396D01*
X107667006Y-55233996D01*
X107743094Y-55272765D01*
X107828360Y-55316211D01*
X107828363Y-55316212D01*
X107914476Y-55344191D01*
X108000591Y-55372171D01*
X108083429Y-55385291D01*
X108179449Y-55400500D01*
X108179454Y-55400500D01*
X108360551Y-55400500D01*
X108447259Y-55386765D01*
X108539409Y-55372171D01*
X108711639Y-55316211D01*
X108872994Y-55233996D01*
X109019501Y-55127553D01*
X109147553Y-54999501D01*
X109253996Y-54852994D01*
X109336211Y-54691639D01*
X109392171Y-54519409D01*
X109413027Y-54387729D01*
X109442956Y-54324595D01*
X109502267Y-54287663D01*
X109572130Y-54288661D01*
X109630363Y-54327271D01*
X109658477Y-54391234D01*
X109659500Y-54407127D01*
X109659500Y-55144856D01*
X109659502Y-55144882D01*
X109662413Y-55169987D01*
X109662415Y-55169991D01*
X109707793Y-55272764D01*
X109707794Y-55272765D01*
X109787235Y-55352206D01*
X109890009Y-55397585D01*
X109915135Y-55400500D01*
X111704864Y-55400499D01*
X111704879Y-55400497D01*
X111704882Y-55400497D01*
X111729987Y-55397586D01*
X111729988Y-55397585D01*
X111729991Y-55397585D01*
X111832765Y-55352206D01*
X111912206Y-55272765D01*
X111957585Y-55169991D01*
X111960500Y-55144865D01*
X111960500Y-54893713D01*
X116149500Y-54893713D01*
X116149500Y-55106286D01*
X116179961Y-55298613D01*
X116182754Y-55316243D01*
X116242816Y-55501095D01*
X116248444Y-55518414D01*
X116344951Y-55707820D01*
X116469890Y-55879786D01*
X116620213Y-56030109D01*
X116792179Y-56155048D01*
X116792181Y-56155049D01*
X116792184Y-56155051D01*
X116981588Y-56251557D01*
X117183757Y-56317246D01*
X117393713Y-56350500D01*
X117393714Y-56350500D01*
X117606286Y-56350500D01*
X117606287Y-56350500D01*
X117816243Y-56317246D01*
X118018412Y-56251557D01*
X118207816Y-56155051D01*
X118229789Y-56139086D01*
X118379786Y-56030109D01*
X118379788Y-56030106D01*
X118379792Y-56030104D01*
X118530104Y-55879792D01*
X118530106Y-55879788D01*
X118530109Y-55879786D01*
X118655048Y-55707820D01*
X118655047Y-55707820D01*
X118655051Y-55707816D01*
X118751557Y-55518412D01*
X118817246Y-55316243D01*
X118850500Y-55106287D01*
X118850500Y-54893713D01*
X118817246Y-54683757D01*
X118751557Y-54481588D01*
X118655051Y-54292184D01*
X118655049Y-54292181D01*
X118655048Y-54292179D01*
X118530109Y-54120213D01*
X118379786Y-53969890D01*
X118207820Y-53844951D01*
X118018414Y-53748444D01*
X118018413Y-53748443D01*
X118018412Y-53748443D01*
X117816243Y-53682754D01*
X117816241Y-53682753D01*
X117816240Y-53682753D01*
X117648810Y-53656235D01*
X117606287Y-53649500D01*
X117393713Y-53649500D01*
X117351190Y-53656235D01*
X117183760Y-53682753D01*
X116981585Y-53748444D01*
X116792179Y-53844951D01*
X116620213Y-53969890D01*
X116469890Y-54120213D01*
X116344951Y-54292179D01*
X116248444Y-54481585D01*
X116182753Y-54683760D01*
X116149500Y-54893713D01*
X111960500Y-54893713D01*
X111960499Y-54250000D01*
X111960499Y-53355143D01*
X111960499Y-53355136D01*
X111960497Y-53355117D01*
X111957586Y-53330012D01*
X111957585Y-53330010D01*
X111957585Y-53330009D01*
X111912206Y-53227235D01*
X111832765Y-53147794D01*
X111832763Y-53147793D01*
X111729992Y-53102415D01*
X111704865Y-53099500D01*
X109915143Y-53099500D01*
X109915117Y-53099502D01*
X109890012Y-53102413D01*
X109890008Y-53102415D01*
X109787235Y-53147793D01*
X109707794Y-53227234D01*
X109662415Y-53330006D01*
X109662415Y-53330008D01*
X109659500Y-53355131D01*
X109659500Y-54092871D01*
X109639815Y-54159910D01*
X109587011Y-54205665D01*
X109517853Y-54215609D01*
X109454297Y-54186584D01*
X109416523Y-54127806D01*
X109413027Y-54112269D01*
X109404274Y-54057007D01*
X109392171Y-53980591D01*
X109336211Y-53808361D01*
X109336211Y-53808360D01*
X109297191Y-53731780D01*
X109253996Y-53647006D01*
X109215349Y-53593812D01*
X109147558Y-53500505D01*
X109147554Y-53500500D01*
X109019499Y-53372445D01*
X109019494Y-53372441D01*
X108872997Y-53266006D01*
X108872996Y-53266005D01*
X108872994Y-53266004D01*
X108796906Y-53227235D01*
X108711639Y-53183788D01*
X108711636Y-53183787D01*
X108539410Y-53127829D01*
X108360551Y-53099500D01*
X108360546Y-53099500D01*
X108179454Y-53099500D01*
X108179449Y-53099500D01*
X108000589Y-53127829D01*
X107828363Y-53183787D01*
X107828360Y-53183788D01*
X107667002Y-53266006D01*
X107520505Y-53372441D01*
X107520500Y-53372445D01*
X107392445Y-53500500D01*
X107392441Y-53500505D01*
X107286006Y-53647002D01*
X107203788Y-53808360D01*
X107203787Y-53808363D01*
X107147829Y-53980589D01*
X107122473Y-54140678D01*
X107092544Y-54203813D01*
X107033232Y-54240744D01*
X106963369Y-54239746D01*
X106905137Y-54201136D01*
X106877527Y-54140678D01*
X106863740Y-54053639D01*
X106852171Y-53980591D01*
X106796211Y-53808361D01*
X106796211Y-53808360D01*
X106757191Y-53731780D01*
X106713996Y-53647006D01*
X106675349Y-53593812D01*
X106607558Y-53500505D01*
X106607554Y-53500500D01*
X106479499Y-53372445D01*
X106479494Y-53372441D01*
X106332997Y-53266006D01*
X106332996Y-53266005D01*
X106332994Y-53266004D01*
X106256906Y-53227235D01*
X106171639Y-53183788D01*
X106171636Y-53183787D01*
X105999410Y-53127829D01*
X105820551Y-53099500D01*
X105820546Y-53099500D01*
X105639454Y-53099500D01*
X105639449Y-53099500D01*
X105460589Y-53127829D01*
X105288363Y-53183787D01*
X105288360Y-53183788D01*
X105127002Y-53266006D01*
X104980505Y-53372441D01*
X104980500Y-53372445D01*
X104852445Y-53500500D01*
X104852441Y-53500505D01*
X104746004Y-53647004D01*
X104678908Y-53778685D01*
X104630933Y-53829480D01*
X104563112Y-53846275D01*
X104496977Y-53823737D01*
X104453527Y-53769021D01*
X104450492Y-53760705D01*
X104441094Y-53731780D01*
X104344624Y-53542449D01*
X104305270Y-53488282D01*
X104305269Y-53488282D01*
X103672962Y-54120590D01*
X103655925Y-54057007D01*
X103590099Y-53942993D01*
X103497007Y-53849901D01*
X103382993Y-53784075D01*
X103319409Y-53767037D01*
X103951716Y-53134728D01*
X103897550Y-53095375D01*
X103708217Y-52998904D01*
X103506129Y-52933242D01*
X103296246Y-52900000D01*
X103083754Y-52900000D01*
X102873872Y-52933242D01*
X102873869Y-52933242D01*
X102671782Y-52998904D01*
X102482439Y-53095380D01*
X102428282Y-53134727D01*
X102428282Y-53134728D01*
X103060591Y-53767037D01*
X102997007Y-53784075D01*
X102882993Y-53849901D01*
X102789901Y-53942993D01*
X102724075Y-54057007D01*
X102707037Y-54120591D01*
X102074728Y-53488282D01*
X102074727Y-53488282D01*
X102035380Y-53542439D01*
X101938904Y-53731782D01*
X101873242Y-53933869D01*
X101873242Y-53933872D01*
X101840000Y-54143753D01*
X98160499Y-54143753D01*
X98160499Y-53355136D01*
X98160497Y-53355117D01*
X98157586Y-53330012D01*
X98157585Y-53330011D01*
X98157585Y-53330009D01*
X98112206Y-53227235D01*
X98032765Y-53147794D01*
X98032763Y-53147793D01*
X97929992Y-53102415D01*
X97904865Y-53099500D01*
X96115143Y-53099500D01*
X96115117Y-53099502D01*
X96090012Y-53102413D01*
X96090008Y-53102415D01*
X95987235Y-53147793D01*
X95907794Y-53227234D01*
X95862415Y-53330006D01*
X95862415Y-53330008D01*
X95859500Y-53355131D01*
X95859500Y-54092871D01*
X95839815Y-54159910D01*
X95787011Y-54205665D01*
X95717853Y-54215609D01*
X95654297Y-54186584D01*
X95616523Y-54127806D01*
X95613027Y-54112269D01*
X95604274Y-54057007D01*
X95592171Y-53980591D01*
X95536211Y-53808361D01*
X95536211Y-53808360D01*
X95497191Y-53731780D01*
X95453996Y-53647006D01*
X95415349Y-53593812D01*
X95347558Y-53500505D01*
X95347554Y-53500500D01*
X95219499Y-53372445D01*
X95219494Y-53372441D01*
X95072997Y-53266006D01*
X95072996Y-53266005D01*
X95072994Y-53266004D01*
X94996906Y-53227235D01*
X94911639Y-53183788D01*
X94911636Y-53183787D01*
X94739410Y-53127829D01*
X94560551Y-53099500D01*
X94560546Y-53099500D01*
X94379454Y-53099500D01*
X94379449Y-53099500D01*
X94200589Y-53127829D01*
X94028363Y-53183787D01*
X94028360Y-53183788D01*
X93867002Y-53266006D01*
X93720505Y-53372441D01*
X93720500Y-53372445D01*
X93592445Y-53500500D01*
X93592441Y-53500505D01*
X93486006Y-53647002D01*
X93403788Y-53808360D01*
X93403787Y-53808363D01*
X93347829Y-53980589D01*
X93322473Y-54140678D01*
X93292544Y-54203813D01*
X93233232Y-54240744D01*
X93163369Y-54239746D01*
X93105137Y-54201136D01*
X93077527Y-54140678D01*
X93063740Y-54053639D01*
X93052171Y-53980591D01*
X92996211Y-53808361D01*
X92996211Y-53808360D01*
X92957191Y-53731780D01*
X92913996Y-53647006D01*
X92875349Y-53593812D01*
X92807558Y-53500505D01*
X92807554Y-53500500D01*
X92679499Y-53372445D01*
X92679494Y-53372441D01*
X92532997Y-53266006D01*
X92532996Y-53266005D01*
X92532994Y-53266004D01*
X92456906Y-53227235D01*
X92371639Y-53183788D01*
X92371636Y-53183787D01*
X92199410Y-53127829D01*
X92020551Y-53099500D01*
X92020546Y-53099500D01*
X91839454Y-53099500D01*
X91839449Y-53099500D01*
X91660589Y-53127829D01*
X91488363Y-53183787D01*
X91488360Y-53183788D01*
X91327002Y-53266006D01*
X91180505Y-53372441D01*
X91180500Y-53372445D01*
X91052445Y-53500500D01*
X91052441Y-53500505D01*
X90946004Y-53647004D01*
X90878908Y-53778685D01*
X90830933Y-53829480D01*
X90763112Y-53846275D01*
X90696977Y-53823737D01*
X90653527Y-53769021D01*
X90650492Y-53760705D01*
X90641094Y-53731780D01*
X90544624Y-53542449D01*
X90505270Y-53488282D01*
X90505269Y-53488282D01*
X89872962Y-54120590D01*
X89855925Y-54057007D01*
X89790099Y-53942993D01*
X89697007Y-53849901D01*
X89582993Y-53784075D01*
X89519409Y-53767037D01*
X90151716Y-53134728D01*
X90097550Y-53095375D01*
X89908217Y-52998904D01*
X89706129Y-52933242D01*
X89496246Y-52900000D01*
X89283754Y-52900000D01*
X89073872Y-52933242D01*
X89073869Y-52933242D01*
X88871782Y-52998904D01*
X88682439Y-53095380D01*
X88628282Y-53134727D01*
X88628282Y-53134728D01*
X89260591Y-53767037D01*
X89197007Y-53784075D01*
X89082993Y-53849901D01*
X88989901Y-53942993D01*
X88924075Y-54057007D01*
X88907037Y-54120591D01*
X88274728Y-53488282D01*
X88274727Y-53488282D01*
X88235380Y-53542439D01*
X88138904Y-53731782D01*
X88073242Y-53933869D01*
X88073242Y-53933872D01*
X88040000Y-54143753D01*
X83047210Y-54143753D01*
X83030104Y-54120208D01*
X82879792Y-53969896D01*
X82879786Y-53969890D01*
X82707820Y-53844951D01*
X82518414Y-53748444D01*
X82518413Y-53748443D01*
X82518412Y-53748443D01*
X82316243Y-53682754D01*
X82316241Y-53682753D01*
X82316240Y-53682753D01*
X82148810Y-53656235D01*
X82106287Y-53649500D01*
X81893713Y-53649500D01*
X81851190Y-53656235D01*
X81683760Y-53682753D01*
X81481585Y-53748444D01*
X81292179Y-53844951D01*
X81120213Y-53969890D01*
X80969890Y-54120213D01*
X80844951Y-54292179D01*
X80748444Y-54481585D01*
X80682753Y-54683760D01*
X80649500Y-54893713D01*
X79250000Y-54893713D01*
X79250000Y-53956441D01*
X79253109Y-53928849D01*
X79287383Y-53778685D01*
X79305786Y-53698055D01*
X79316184Y-53669373D01*
X79340593Y-53621468D01*
X79342471Y-53617931D01*
X79434864Y-53450759D01*
X79439332Y-53443312D01*
X79487427Y-53369252D01*
X79490212Y-53365152D01*
X79634353Y-53162002D01*
X79639060Y-53155797D01*
X79684231Y-53100014D01*
X79688034Y-53095546D01*
X79851297Y-52912855D01*
X79856024Y-52907855D01*
X79907854Y-52856025D01*
X79912856Y-52851296D01*
X80095531Y-52688048D01*
X80100057Y-52684197D01*
X80155781Y-52639073D01*
X80161994Y-52634359D01*
X80365152Y-52490212D01*
X80369252Y-52487427D01*
X80442765Y-52439687D01*
X80450236Y-52435205D01*
X80619106Y-52341873D01*
X80622698Y-52339966D01*
X80670054Y-52315837D01*
X80698705Y-52305446D01*
X80931144Y-52252338D01*
X80958697Y-52249224D01*
X89331978Y-52245424D01*
X118485791Y-52232191D01*
X118513407Y-52235293D01*
G37*
%TD.AperFunction*%
%TD*%
M02*
