%TF.GenerationSoftware,KiCad,Pcbnew,10.0.1*%
%TF.CreationDate,2026-06-22T17:24:13+05:30*%
%TF.ProjectId,STM32F103C8T6,53544d33-3246-4313-9033-433854362e6b,rev?*%
%TF.SameCoordinates,Original*%
%TF.FileFunction,Paste,Top*%
%TF.FilePolarity,Positive*%
%FSLAX46Y46*%
G04 Gerber Fmt 4.6, Leading zero omitted, Abs format (unit mm)*
G04 Created by KiCad (PCBNEW 10.0.1) date 2026-06-22 17:24:13*
%MOMM*%
%LPD*%
G01*
G04 APERTURE LIST*
G04 Aperture macros list*
%AMRoundRect*
0 Rectangle with rounded corners*
0 $1 Rounding radius*
0 $2 $3 $4 $5 $6 $7 $8 $9 X,Y pos of 4 corners*
0 Add a 4 corners polygon primitive as box body*
4,1,4,$2,$3,$4,$5,$6,$7,$8,$9,$2,$3,0*
0 Add four circle primitives for the rounded corners*
1,1,$1+$1,$2,$3*
1,1,$1+$1,$4,$5*
1,1,$1+$1,$6,$7*
1,1,$1+$1,$8,$9*
0 Add four rect primitives between the rounded corners*
20,1,$1+$1,$2,$3,$4,$5,0*
20,1,$1+$1,$4,$5,$6,$7,0*
20,1,$1+$1,$6,$7,$8,$9,0*
20,1,$1+$1,$8,$9,$2,$3,0*%
G04 Aperture macros list end*
%ADD10RoundRect,0.250000X-0.350000X0.450000X-0.350000X-0.450000X0.350000X-0.450000X0.350000X0.450000X0*%
%ADD11R,0.800000X1.000000*%
%ADD12R,1.500000X0.700000*%
%ADD13RoundRect,0.140000X0.170000X-0.140000X0.170000X0.140000X-0.170000X0.140000X-0.170000X-0.140000X0*%
%ADD14RoundRect,0.140000X0.140000X0.170000X-0.140000X0.170000X-0.140000X-0.170000X0.140000X-0.170000X0*%
%ADD15RoundRect,0.135000X-0.185000X0.135000X-0.185000X-0.135000X0.185000X-0.135000X0.185000X0.135000X0*%
%ADD16RoundRect,0.075000X-0.662500X-0.075000X0.662500X-0.075000X0.662500X0.075000X-0.662500X0.075000X0*%
%ADD17RoundRect,0.075000X-0.075000X-0.662500X0.075000X-0.662500X0.075000X0.662500X-0.075000X0.662500X0*%
%ADD18RoundRect,0.250000X-0.250000X-0.475000X0.250000X-0.475000X0.250000X0.475000X-0.250000X0.475000X0*%
%ADD19RoundRect,0.160000X0.197500X0.160000X-0.197500X0.160000X-0.197500X-0.160000X0.197500X-0.160000X0*%
%ADD20RoundRect,0.375000X-0.375000X0.625000X-0.375000X-0.625000X0.375000X-0.625000X0.375000X0.625000X0*%
%ADD21RoundRect,0.500000X-1.400000X0.500000X-1.400000X-0.500000X1.400000X-0.500000X1.400000X0.500000X0*%
%ADD22RoundRect,0.225000X-0.225000X-0.250000X0.225000X-0.250000X0.225000X0.250000X-0.225000X0.250000X0*%
%ADD23RoundRect,0.140000X-0.140000X-0.170000X0.140000X-0.170000X0.140000X0.170000X-0.140000X0.170000X0*%
%ADD24RoundRect,0.218750X-0.256250X0.218750X-0.256250X-0.218750X0.256250X-0.218750X0.256250X0.218750X0*%
%ADD25RoundRect,0.112500X0.537500X-0.112500X0.537500X0.112500X-0.537500X0.112500X-0.537500X-0.112500X0*%
%ADD26RoundRect,0.135000X0.185000X-0.135000X0.185000X0.135000X-0.185000X0.135000X-0.185000X-0.135000X0*%
%ADD27RoundRect,0.250000X0.475000X-0.250000X0.475000X0.250000X-0.475000X0.250000X-0.475000X-0.250000X0*%
%ADD28RoundRect,0.140000X-0.170000X0.140000X-0.170000X-0.140000X0.170000X-0.140000X0.170000X0.140000X0*%
%ADD29RoundRect,0.160000X-0.197500X-0.160000X0.197500X-0.160000X0.197500X0.160000X-0.197500X0.160000X0*%
G04 APERTURE END LIST*
D10*
%TO.C,Y1*%
X85900000Y-67850000D03*
X85900000Y-70050000D03*
X87600000Y-70050000D03*
X87600000Y-67850000D03*
%TD*%
D11*
%TO.C,SW1*%
X82280000Y-58850000D03*
X80070000Y-58850000D03*
X82280000Y-66150000D03*
X80070000Y-66150000D03*
D12*
X82930000Y-60250000D03*
X82930000Y-63250000D03*
X82930000Y-64750000D03*
%TD*%
D13*
%TO.C,C6*%
X90925000Y-70460000D03*
X90925000Y-69500000D03*
%TD*%
%TO.C,C4*%
X91050000Y-66255000D03*
X91050000Y-65295000D03*
%TD*%
D14*
%TO.C,C3*%
X100210000Y-74990000D03*
X99250000Y-74990000D03*
%TD*%
D15*
%TO.C,R2*%
X108100000Y-66740000D03*
X108100000Y-67760000D03*
%TD*%
D16*
%TO.C,U1*%
X92837500Y-66250000D03*
X92837500Y-66750000D03*
X92837500Y-67250000D03*
X92837500Y-67750000D03*
X92837500Y-68250000D03*
X92837500Y-68750000D03*
X92837500Y-69250000D03*
X92837500Y-69750000D03*
X92837500Y-70250000D03*
X92837500Y-70750000D03*
X92837500Y-71250000D03*
X92837500Y-71750000D03*
D17*
X94250000Y-73162500D03*
X94750000Y-73162500D03*
X95250000Y-73162500D03*
X95750000Y-73162500D03*
X96250000Y-73162500D03*
X96750000Y-73162500D03*
X97250000Y-73162500D03*
X97750000Y-73162500D03*
X98250000Y-73162500D03*
X98750000Y-73162500D03*
X99250000Y-73162500D03*
X99750000Y-73162500D03*
D16*
X101162500Y-71750000D03*
X101162500Y-71250000D03*
X101162500Y-70750000D03*
X101162500Y-70250000D03*
X101162500Y-69750000D03*
X101162500Y-69250000D03*
X101162500Y-68750000D03*
X101162500Y-68250000D03*
X101162500Y-67750000D03*
X101162500Y-67250000D03*
X101162500Y-66750000D03*
X101162500Y-66250000D03*
D17*
X99750000Y-64837500D03*
X99250000Y-64837500D03*
X98750000Y-64837500D03*
X98250000Y-64837500D03*
X97750000Y-64837500D03*
X97250000Y-64837500D03*
X96750000Y-64837500D03*
X96250000Y-64837500D03*
X95750000Y-64837500D03*
X95250000Y-64837500D03*
X94750000Y-64837500D03*
X94250000Y-64837500D03*
%TD*%
D18*
%TO.C,C12*%
X105225000Y-71275000D03*
X107125000Y-71275000D03*
%TD*%
D19*
%TO.C,R4*%
X93167500Y-79000000D03*
X91972500Y-79000000D03*
%TD*%
D20*
%TO.C,U2*%
X108300000Y-73850000D03*
X106000000Y-73850000D03*
D21*
X106000000Y-80150000D03*
D20*
X103700000Y-73850000D03*
%TD*%
D14*
%TO.C,C7*%
X90900000Y-73457500D03*
X89940000Y-73457500D03*
%TD*%
D22*
%TO.C,C5*%
X93650000Y-61325000D03*
X95200000Y-61325000D03*
%TD*%
D23*
%TO.C,C9*%
X94320000Y-75200000D03*
X95280000Y-75200000D03*
%TD*%
D24*
%TO.C,D1*%
X114390000Y-76382500D03*
X114390000Y-77957500D03*
%TD*%
D25*
%TO.C,J1*%
X114590000Y-69040000D03*
X114590000Y-68390000D03*
X114590000Y-67740000D03*
X114590000Y-67090000D03*
X114590000Y-66440000D03*
%TD*%
D26*
%TO.C,R1*%
X85910000Y-61560000D03*
X85910000Y-60540000D03*
%TD*%
D19*
%TO.C,R3*%
X115000000Y-74500000D03*
X113805000Y-74500000D03*
%TD*%
D13*
%TO.C,C11*%
X89600000Y-70580000D03*
X89600000Y-69620000D03*
%TD*%
D14*
%TO.C,C8*%
X90925000Y-74982500D03*
X89965000Y-74982500D03*
%TD*%
D23*
%TO.C,C1*%
X93975000Y-63025000D03*
X94935000Y-63025000D03*
%TD*%
D24*
%TO.C,FB1*%
X92190000Y-73430000D03*
X92190000Y-75005000D03*
%TD*%
D13*
%TO.C,C10*%
X89575000Y-68505000D03*
X89575000Y-67545000D03*
%TD*%
D27*
%TO.C,C13*%
X111000000Y-77950000D03*
X111000000Y-76050000D03*
%TD*%
D28*
%TO.C,C2*%
X103275000Y-66020000D03*
X103275000Y-66980000D03*
%TD*%
D29*
%TO.C,R5*%
X94500000Y-79000000D03*
X95695000Y-79000000D03*
%TD*%
M02*
